<svg id="svg" version="1.1" xmlns="http://www.w3.org/2000/svg" xmlns:xlink="http://www.w3.org/1999/xlink" width="400" height="185.11502029769957" viewBox="0, 0, 400,185.11502029769957"><g id="svgg"><path id="path0" d="M70.964 32.044 C 70.835 32.252,70.648 32.372,70.549 32.311 C 70.450 32.250,70.292 32.405,70.196 32.656 C 70.101 32.907,69.934 33.167,69.826 33.234 C 69.493 33.440,69.555 85.909,69.889 86.037 C 70.032 86.092,70.191 86.298,70.242 86.494 C 70.298 86.706,70.496 86.852,70.729 86.852 C 70.946 86.852,71.171 86.977,71.229 87.130 C 71.391 87.552,115.556 87.552,115.556 87.130 C 115.556 86.966,115.726 86.851,115.972 86.850 C 116.243 86.848,116.535 86.622,116.806 86.204 L 117.222 85.561 117.222 59.483 L 117.222 33.405 116.732 32.813 C 116.463 32.488,116.140 32.222,116.014 32.222 C 115.889 32.222,115.682 32.097,115.556 31.944 C 115.134 31.436,71.283 31.534,70.964 32.044 M113.947 34.964 L 114.444 35.483 114.444 59.686 C 114.444 81.483,114.416 83.889,114.156 83.889 C 113.997 83.889,113.919 83.972,113.981 84.074 C 114.044 84.176,113.963 84.259,113.801 84.259 C 113.639 84.259,113.459 84.384,113.400 84.537 C 113.306 84.782,110.907 84.815,93.348 84.815 L 73.401 84.815 72.812 84.149 L 72.222 83.483 72.222 59.509 L 72.222 35.535 72.819 34.990 L 73.416 34.444 93.433 34.444 L 113.449 34.444 113.947 34.964 M76.667 43.333 L 76.667 44.630 93.704 44.630 L 110.741 44.630 110.741 43.333 L 110.741 42.037 93.704 42.037 L 76.667 42.037 76.667 43.333 M76.705 54.306 L 76.759 55.833 78.410 55.887 C 80.370 55.951,80.364 55.957,80.368 54.120 L 80.370 52.778 78.511 52.778 L 76.652 52.778 76.705 54.306 M80.942 54.352 L 80.976 55.926 95.746 55.926 C 109.043 55.926,110.527 55.897,110.628 55.633 C 110.690 55.472,110.741 54.764,110.741 54.059 L 110.741 52.778 95.824 52.778 L 80.907 52.778 80.942 54.352 M123.148 60.648 L 123.148 62.037 129.907 62.037 L 136.667 62.037 136.667 92.870 L 136.667 123.704 129.907 123.704 L 123.148 123.704 123.148 125.093 L 123.148 126.481 131.296 126.481 L 139.444 126.481 139.444 92.870 L 139.444 59.259 131.296 59.259 L 123.148 59.259 123.148 60.648 M76.667 66.019 L 76.667 67.407 78.519 67.407 L 80.370 67.407 80.370 66.019 L 80.370 64.630 78.519 64.630 L 76.667 64.630 76.667 66.019 M80.926 66.019 L 80.926 67.407 95.833 67.407 L 110.741 67.407 110.741 66.019 L 110.741 64.630 95.833 64.630 L 80.926 64.630 80.926 66.019 M76.667 77.963 L 76.667 79.259 78.519 79.259 L 80.370 79.259 80.370 77.963 L 80.370 76.667 78.519 76.667 L 76.667 76.667 76.667 77.963 M80.926 77.963 L 80.926 79.259 95.833 79.259 L 110.741 79.259 110.741 77.963 L 110.741 76.667 95.833 76.667 L 80.926 76.667 80.926 77.963 M71.111 96.369 C 71.111 96.511,70.903 96.679,70.648 96.743 C 70.394 96.807,70.185 96.972,70.185 97.110 C 70.185 97.249,70.060 97.466,69.907 97.593 C 69.501 97.930,69.483 150.326,69.889 150.482 C 70.032 150.536,70.191 150.742,70.242 150.939 C 70.298 151.151,70.496 151.296,70.729 151.296 C 70.946 151.296,71.171 151.421,71.229 151.574 C 71.323 151.819,73.963 151.852,93.446 151.852 C 112.975 151.852,115.556 151.819,115.556 151.574 C 115.556 151.410,115.726 151.295,115.972 151.294 C 116.243 151.293,116.535 151.066,116.806 150.648 L 117.222 150.005 117.222 123.927 L 117.222 97.849 116.732 97.258 C 116.463 96.933,116.140 96.667,116.014 96.667 C 115.889 96.667,115.682 96.542,115.556 96.389 C 115.220 95.984,71.111 95.965,71.111 96.369 M113.903 99.430 L 114.444 99.972 114.444 124.066 C 114.444 145.271,114.411 148.173,114.168 148.266 C 114.016 148.324,113.937 148.447,113.993 148.538 C 114.050 148.629,113.963 148.704,113.801 148.704 C 113.639 148.704,113.459 148.829,113.400 148.981 C 113.306 149.226,110.912 149.259,93.397 149.259 L 73.500 149.259 72.861 148.639 L 72.222 148.018 72.222 123.999 L 72.222 99.979 72.819 99.434 L 73.416 98.889 93.389 98.889 L 113.362 98.889 113.903 99.430 M76.667 107.778 L 76.667 109.074 93.704 109.074 L 110.741 109.074 110.741 107.778 L 110.741 106.481 93.704 106.481 L 76.667 106.481 76.667 107.778 M76.667 118.796 L 76.667 120.370 78.406 120.370 C 80.424 120.370,80.370 120.422,80.370 118.503 L 80.370 117.222 78.519 117.222 L 76.667 117.222 76.667 118.796 M80.942 118.796 L 80.976 120.370 95.746 120.370 C 109.043 120.370,110.527 120.341,110.628 120.077 C 110.690 119.916,110.741 119.208,110.741 118.503 L 110.741 117.222 95.824 117.222 L 80.907 117.222 80.942 118.796 M76.667 130.463 L 76.667 131.852 78.519 131.852 L 80.370 131.852 80.370 130.463 L 80.370 129.074 78.519 129.074 L 76.667 129.074 76.667 130.463 M80.926 130.463 L 80.926 131.852 95.833 131.852 L 110.741 131.852 110.741 130.463 L 110.741 129.074 95.833 129.074 L 80.926 129.074 80.926 130.463 M76.667 142.407 L 76.667 143.704 78.519 143.704 L 80.370 143.704 80.370 142.407 L 80.370 141.111 78.519 141.111 L 76.667 141.111 76.667 142.407 M80.926 142.407 L 80.926 143.704 95.833 143.704 L 110.741 143.704 110.741 142.407 L 110.741 141.111 95.833 141.111 L 80.926 141.111 80.926 142.407 " stroke="none" fill="#8c8c8c" fill-rule="evenodd"></path><path id="path1" d="M42.037 10.275 C 42.037 10.501,41.765 10.556,40.648 10.556 C 39.558 10.556,39.259 10.613,39.259 10.824 C 39.259 11.021,38.976 11.107,38.194 11.148 C 37.464 11.186,37.144 11.276,37.176 11.435 C 37.207 11.593,36.957 11.667,36.389 11.667 C 35.772 11.667,35.556 11.739,35.556 11.944 C 35.556 12.130,35.370 12.222,35.000 12.222 C 34.630 12.222,34.444 12.315,34.444 12.500 C 34.444 12.685,34.259 12.778,33.889 12.778 C 33.519 12.778,33.333 12.870,33.333 13.056 C 33.333 13.241,33.148 13.333,32.778 13.333 C 32.407 13.333,32.222 13.426,32.222 13.611 C 32.222 13.781,32.050 13.889,31.779 13.889 C 31.535 13.889,31.288 14.014,31.229 14.167 C 31.171 14.319,31.029 14.444,30.913 14.444 C 30.651 14.444,28.889 16.228,28.889 16.493 C 28.889 16.601,28.806 16.637,28.704 16.574 C 28.602 16.511,28.519 16.537,28.519 16.631 C 28.519 16.725,28.270 17.084,27.966 17.429 C 27.344 18.134,27.282 18.333,27.685 18.333 C 27.840 18.333,27.963 18.169,27.963 17.963 C 27.963 17.759,28.081 17.593,28.225 17.593 C 28.370 17.593,28.520 17.494,28.560 17.374 C 28.601 17.254,28.764 17.206,28.924 17.267 C 29.167 17.360,29.230 17.880,29.304 20.402 C 29.449 25.289,31.168 29.589,33.920 31.944 C 35.177 33.020,35.947 33.532,36.463 33.635 L 37.037 33.750 37.037 32.821 C 37.037 32.166,37.119 31.860,37.315 31.785 C 37.510 31.710,37.593 31.406,37.593 30.769 C 37.593 30.187,37.692 29.777,37.870 29.630 C 38.023 29.503,38.148 29.170,38.148 28.889 C 38.148 28.608,38.273 28.275,38.426 28.148 C 38.579 28.021,38.704 27.761,38.704 27.570 C 38.704 27.379,38.781 27.222,38.876 27.222 C 38.971 27.222,39.106 27.043,39.176 26.823 C 39.245 26.604,39.626 26.107,40.021 25.720 C 40.417 25.332,40.741 24.928,40.741 24.822 C 40.741 24.716,40.868 24.630,41.024 24.630 C 41.180 24.630,41.356 24.505,41.415 24.352 C 41.473 24.199,41.721 24.074,41.964 24.074 C 42.235 24.074,42.407 23.966,42.407 23.796 C 42.407 23.611,42.593 23.519,42.963 23.519 C 43.333 23.519,43.519 23.426,43.519 23.241 C 43.519 23.032,43.743 22.963,44.425 22.963 C 45.059 22.963,45.363 22.880,45.437 22.685 C 45.515 22.482,45.837 22.407,46.641 22.407 C 47.445 22.407,47.767 22.333,47.845 22.130 C 47.934 21.897,48.503 21.852,51.375 21.852 L 54.798 21.852 54.906 21.250 C 54.966 20.919,54.991 18.273,54.961 15.370 L 54.907 10.093 48.472 10.044 C 42.830 10.001,42.037 10.030,42.037 10.275 M154.530 10.426 C 154.366 11.077,154.516 21.430,154.691 21.605 C 154.775 21.690,156.291 21.785,158.058 21.817 C 160.571 21.863,161.319 21.933,161.491 22.141 C 161.638 22.318,162.081 22.407,162.806 22.407 C 163.608 22.407,163.929 22.482,164.007 22.685 C 164.080 22.874,164.376 22.963,164.933 22.963 C 165.490 22.963,165.786 23.052,165.859 23.241 C 165.918 23.396,166.194 23.519,166.481 23.519 C 166.769 23.519,167.045 23.641,167.104 23.796 C 167.163 23.949,167.422 24.074,167.679 24.074 C 167.973 24.074,168.148 24.178,168.148 24.352 C 168.148 24.505,168.273 24.630,168.426 24.630 C 168.579 24.630,168.704 24.755,168.704 24.907 C 168.704 25.060,168.829 25.185,168.981 25.185 C 169.134 25.185,169.259 25.274,169.259 25.384 C 169.259 25.630,169.727 26.111,169.967 26.111 C 170.065 26.111,170.197 26.319,170.261 26.574 C 170.325 26.829,170.459 27.037,170.559 27.037 C 170.659 27.037,170.741 27.248,170.741 27.506 C 170.741 27.764,170.866 28.023,171.019 28.081 C 171.190 28.147,171.296 28.428,171.296 28.816 C 171.296 29.162,171.385 29.444,171.492 29.444 C 171.600 29.444,171.637 29.528,171.574 29.630 C 171.511 29.731,171.548 29.815,171.656 29.815 C 171.770 29.815,171.852 30.237,171.852 30.824 C 171.852 31.515,171.937 31.881,172.121 31.984 C 172.317 32.093,172.406 32.565,172.446 33.692 C 172.482 34.731,172.577 35.273,172.731 35.325 C 172.859 35.367,172.963 35.267,172.963 35.102 C 172.963 34.938,173.109 34.749,173.287 34.684 C 173.465 34.618,173.653 34.513,173.704 34.452 C 173.755 34.390,174.207 34.009,174.708 33.605 C 176.379 32.260,178.334 29.493,179.218 27.222 C 180.243 24.590,180.252 24.531,180.274 20.556 C 180.286 18.468,180.363 16.613,180.446 16.435 C 180.555 16.199,180.515 16.111,180.298 16.111 C 180.134 16.111,180.000 15.983,180.000 15.828 C 180.000 15.672,179.854 15.488,179.676 15.420 C 179.498 15.352,179.193 15.149,179.000 14.969 C 178.806 14.790,178.577 14.686,178.490 14.740 C 178.404 14.793,178.333 14.748,178.333 14.641 C 178.333 14.533,178.208 14.444,178.056 14.444 C 177.903 14.444,177.778 14.319,177.778 14.167 C 177.778 14.010,177.612 13.889,177.396 13.889 C 177.186 13.889,177.067 13.805,177.131 13.702 C 177.195 13.597,176.994 13.464,176.679 13.401 C 176.367 13.338,176.111 13.172,176.111 13.032 C 176.111 12.873,175.903 12.778,175.556 12.778 C 175.185 12.778,175.000 12.685,175.000 12.500 C 175.000 12.325,174.824 12.222,174.524 12.222 C 174.262 12.222,173.923 12.097,173.770 11.944 C 173.617 11.792,173.206 11.667,172.857 11.667 C 172.416 11.667,172.222 11.582,172.222 11.389 C 172.222 11.236,172.160 11.121,172.083 11.133 C 171.319 11.254,170.185 11.075,170.185 10.833 C 170.185 10.613,169.916 10.556,168.876 10.556 C 167.959 10.556,167.483 10.472,167.288 10.278 C 167.053 10.042,166.076 10.000,160.824 10.000 L 154.637 10.000 154.530 10.426 M26.906 18.843 C 26.841 19.021,26.677 19.233,26.542 19.315 C 26.407 19.396,26.296 19.667,26.296 19.917 C 26.296 20.196,26.190 20.370,26.019 20.370 C 25.833 20.370,25.741 20.556,25.741 20.926 C 25.741 21.296,25.648 21.481,25.463 21.481 C 25.278 21.481,25.185 21.667,25.185 22.037 C 25.185 22.407,25.278 22.593,25.463 22.593 C 25.648 22.593,25.741 22.407,25.741 22.037 C 25.741 21.667,25.833 21.481,26.019 21.481 C 26.204 21.481,26.296 21.296,26.296 20.926 C 26.296 20.556,26.389 20.370,26.574 20.370 C 26.748 20.370,26.852 20.195,26.852 19.902 C 26.852 19.644,26.977 19.385,27.130 19.326 C 27.441 19.207,27.514 18.519,27.216 18.519 C 27.111 18.519,26.972 18.664,26.906 18.843 M24.711 23.237 C 24.617 23.738,24.652 23.974,24.837 24.089 C 25.034 24.212,25.106 24.095,25.152 23.582 C 25.235 22.636,24.876 22.355,24.711 23.237 M24.146 24.894 C 23.992 25.297,24.138 25.980,24.398 26.066 C 24.558 26.118,24.630 25.908,24.630 25.386 C 24.630 24.649,24.350 24.364,24.146 24.894 M23.719 26.639 C 23.404 27.226,23.460 28.704,23.796 28.704 C 24.088 28.704,24.150 28.368,24.086 27.132 C 24.039 26.235,23.978 26.154,23.719 26.639 M23.219 30.026 C 22.831 30.530,22.960 34.151,23.352 33.759 C 23.590 33.521,23.752 30.929,23.569 30.303 C 23.446 29.886,23.372 29.827,23.219 30.026 M172.668 35.712 C 172.740 35.830,172.723 35.926,172.630 35.926 C 172.375 35.926,172.473 37.090,172.735 37.177 C 173.034 37.277,173.047 35.815,172.749 35.630 C 172.617 35.549,172.586 35.580,172.668 35.712 M22.493 73.758 C 22.366 74.263,22.509 75.175,22.752 75.419 C 22.994 75.661,23.208 74.582,23.056 73.889 C 22.910 73.228,22.642 73.166,22.493 73.758 M173.086 76.049 C 172.934 76.202,172.930 77.172,173.079 77.729 C 173.269 78.440,173.519 77.988,173.519 76.934 C 173.519 76.000,173.393 75.743,173.086 76.049 M22.058 76.445 C 21.713 77.086,21.848 77.684,22.267 77.371 C 22.518 77.183,22.556 77.007,22.438 76.574 L 22.287 76.019 22.058 76.445 M21.615 78.360 C 21.433 78.678,21.329 78.983,21.383 79.037 C 21.437 79.092,21.481 79.039,21.481 78.920 C 21.481 78.801,21.573 78.725,21.686 78.750 C 21.798 78.775,21.917 78.567,21.951 78.287 C 22.027 77.651,22.017 77.653,21.615 78.360 M173.642 79.383 C 173.412 79.613,173.517 80.330,173.796 80.437 C 174.010 80.519,174.074 80.396,174.074 79.902 C 174.074 79.294,173.918 79.107,173.642 79.383 M174.074 81.652 C 174.074 81.972,174.299 82.407,174.464 82.407 C 174.555 82.407,174.630 82.199,174.630 81.944 C 174.630 81.656,174.525 81.481,174.352 81.481 C 174.199 81.481,174.074 81.558,174.074 81.652 M191.852 85.093 C 191.852 85.245,191.935 85.370,192.037 85.370 C 192.139 85.370,192.222 85.495,192.222 85.648 C 192.222 85.802,192.387 85.926,192.593 85.926 C 193.084 85.926,193.069 85.441,192.574 85.312 C 192.360 85.256,192.240 85.121,192.307 85.012 C 192.374 84.904,192.299 84.815,192.141 84.815 C 191.982 84.815,191.852 84.940,191.852 85.093 M15.118 85.499 C 14.910 85.707,14.991 85.926,15.278 85.926 C 15.431 85.926,15.556 85.848,15.556 85.752 C 15.556 85.518,15.266 85.351,15.118 85.499 M193.148 86.091 C 193.148 86.384,193.264 86.481,193.611 86.481 C 193.899 86.481,194.074 86.377,194.074 86.204 C 194.074 86.051,193.998 85.926,193.904 85.926 C 193.811 85.926,193.602 85.875,193.441 85.814 C 193.231 85.733,193.148 85.812,193.148 86.091 M12.369 86.620 C 12.223 86.797,12.233 87.000,12.409 87.367 L 12.650 87.870 12.788 87.245 C 12.864 86.900,13.037 86.550,13.174 86.466 C 13.344 86.360,13.289 86.323,12.996 86.345 C 12.762 86.362,12.480 86.486,12.369 86.620 M194.167 86.481 C 193.962 86.812,194.267 87.037,194.918 87.037 C 195.587 87.037,195.705 86.890,195.333 86.519 C 195.064 86.249,194.325 86.226,194.167 86.481 M195.684 86.970 C 195.384 87.270,195.582 87.592,196.065 87.590 C 196.625 87.587,197.186 87.309,197.003 87.126 C 196.821 86.944,195.828 86.827,195.684 86.970 M182.914 92.906 C 182.735 92.953,182.636 93.068,182.694 93.162 C 182.752 93.256,182.584 93.333,182.320 93.333 C 182.056 93.333,181.795 93.451,181.740 93.594 C 181.685 93.738,181.434 93.907,181.183 93.970 C 180.931 94.033,180.776 94.166,180.837 94.265 C 180.898 94.364,180.735 94.444,180.474 94.444 C 180.213 94.444,180.000 94.532,180.000 94.638 C 180.000 94.867,179.345 95.494,178.225 96.338 C 177.782 96.671,177.416 97.046,177.413 97.169 C 177.410 97.293,177.241 97.484,177.037 97.593 C 176.833 97.702,176.667 97.867,176.667 97.960 C 176.667 98.053,176.456 98.356,176.199 98.633 C 175.942 98.911,175.683 99.332,175.624 99.569 C 175.564 99.806,175.441 100.000,175.350 100.000 C 175.259 100.000,175.185 100.169,175.185 100.376 C 175.185 100.583,175.060 100.800,174.907 100.859 C 174.736 100.925,174.630 101.206,174.630 101.594 C 174.630 101.990,174.546 102.205,174.403 102.176 C 174.261 102.147,174.137 102.467,174.067 103.044 C 174.006 103.547,173.858 103.992,173.738 104.032 C 173.391 104.148,173.446 106.111,173.796 106.111 C 174.010 106.111,174.074 105.874,174.074 105.093 C 174.074 104.311,174.139 104.074,174.352 104.074 C 174.536 104.074,174.630 103.890,174.630 103.532 C 174.630 103.233,174.755 102.864,174.907 102.712 C 175.060 102.559,175.185 102.267,175.185 102.063 C 175.185 101.860,175.310 101.568,175.463 101.415 C 175.616 101.263,175.741 101.017,175.741 100.869 C 175.741 100.722,175.866 100.497,176.019 100.370 C 176.171 100.244,176.296 100.022,176.296 99.879 C 176.296 99.735,176.421 99.570,176.574 99.511 C 176.727 99.453,176.852 99.330,176.852 99.239 C 176.852 99.058,177.008 98.878,178.519 97.322 C 179.079 96.745,179.808 96.105,180.139 95.899 C 180.470 95.694,180.741 95.459,180.741 95.377 C 180.741 95.295,180.887 95.179,181.065 95.120 C 181.526 94.965,182.104 94.576,182.278 94.306 C 182.359 94.178,182.536 94.074,182.672 94.074 C 182.807 94.074,183.021 93.949,183.148 93.796 C 183.275 93.644,183.497 93.519,183.642 93.519 C 183.786 93.519,184.083 93.352,184.302 93.148 L 184.699 92.778 183.970 92.799 C 183.569 92.811,183.094 92.859,182.914 92.906 M12.317 97.034 C 12.180 97.255,12.353 97.593,12.604 97.593 C 12.829 97.593,12.830 97.091,12.605 96.952 C 12.511 96.894,12.381 96.931,12.317 97.034 M17.593 99.904 C 17.593 99.954,18.202 100.604,18.947 101.349 C 19.693 102.094,20.359 102.851,20.428 103.030 C 20.497 103.210,20.637 103.305,20.739 103.242 C 21.027 103.064,20.960 102.593,20.648 102.593 C 20.495 102.593,20.370 102.468,20.370 102.315 C 20.370 102.162,20.245 102.037,20.093 102.037 C 19.940 102.037,19.815 101.912,19.815 101.759 C 19.815 101.606,19.690 101.481,19.537 101.481 C 19.384 101.481,19.259 101.356,19.259 101.204 C 19.259 101.051,19.134 100.926,18.981 100.926 C 18.829 100.926,18.704 100.801,18.704 100.648 C 18.704 100.495,18.579 100.370,18.426 100.370 C 18.273 100.370,18.148 100.245,18.148 100.093 C 18.148 99.940,18.023 99.815,17.870 99.815 C 17.718 99.815,17.593 99.855,17.593 99.904 M20.926 103.889 C 20.926 104.095,21.049 104.259,21.204 104.259 C 21.358 104.259,21.481 104.095,21.481 103.889 C 21.481 103.683,21.358 103.519,21.204 103.519 C 21.049 103.519,20.926 103.683,20.926 103.889 M21.296 104.827 C 21.296 105.144,21.664 105.741,21.858 105.741 C 21.957 105.741,22.037 105.491,22.037 105.185 C 22.037 104.753,21.955 104.630,21.667 104.630 C 21.463 104.630,21.296 104.718,21.296 104.827 M21.852 106.638 C 21.852 107.061,21.940 107.407,22.048 107.407 C 22.156 107.407,22.193 107.491,22.130 107.593 C 22.067 107.694,22.095 107.778,22.191 107.778 C 22.686 107.778,22.708 106.643,22.222 106.204 C 21.857 105.874,21.852 105.880,21.852 106.638 M173.002 107.994 C 173.080 110.181,173.519 110.246,173.519 108.071 C 173.519 106.763,173.468 106.481,173.233 106.481 C 172.995 106.481,172.957 106.732,173.002 107.994 M22.671 108.665 C 22.346 108.881,22.443 111.019,22.778 111.019 C 22.976 111.019,23.071 110.777,23.110 110.178 C 23.174 109.210,22.959 108.473,22.671 108.665 M172.623 148.684 C 172.487 148.768,172.383 148.891,172.392 148.956 C 172.555 150.178,172.363 153.519,172.130 153.519 C 171.914 153.519,171.852 153.765,171.852 154.630 C 171.852 155.494,171.790 155.741,171.574 155.741 C 171.390 155.741,171.296 155.924,171.296 156.283 C 171.296 156.581,171.171 156.950,171.019 157.103 C 170.866 157.256,170.741 157.556,170.741 157.770 C 170.741 157.985,170.616 158.208,170.463 158.266 C 170.310 158.325,170.185 158.492,170.185 158.637 C 170.185 158.782,170.060 158.948,169.907 159.007 C 169.755 159.066,169.630 159.191,169.630 159.285 C 169.630 159.510,168.558 160.556,168.327 160.556 C 168.229 160.556,168.148 160.681,168.148 160.833 C 168.148 161.019,167.963 161.111,167.593 161.111 C 167.222 161.111,167.037 161.204,167.037 161.389 C 167.037 161.558,166.865 161.667,166.597 161.667 C 166.355 161.667,166.053 161.792,165.926 161.944 C 165.785 162.114,165.379 162.222,164.879 162.222 C 164.324 162.222,164.028 162.311,163.956 162.500 C 163.878 162.703,163.560 162.778,162.781 162.778 C 162.057 162.778,161.638 162.867,161.481 163.056 C 161.293 163.283,160.669 163.333,158.051 163.333 L 154.851 163.333 154.648 163.917 C 154.429 164.544,154.355 173.581,154.560 174.606 L 154.676 175.185 160.955 175.185 C 166.365 175.185,167.249 175.147,167.340 174.907 C 167.420 174.701,167.748 174.630,168.618 174.630 C 169.411 174.630,169.878 174.540,170.066 174.352 C 170.233 174.185,170.686 174.074,171.196 174.074 C 171.783 174.074,172.082 173.988,172.155 173.796 C 172.221 173.625,172.502 173.519,172.890 173.519 C 173.325 173.519,173.519 173.433,173.519 173.241 C 173.519 173.057,173.702 172.963,174.061 172.963 C 174.359 172.963,174.728 172.838,174.881 172.685 C 175.034 172.532,175.373 172.407,175.635 172.407 C 175.935 172.407,176.111 172.305,176.111 172.130 C 176.111 171.977,176.268 171.852,176.459 171.852 C 176.650 171.852,176.910 171.727,177.037 171.574 C 177.164 171.421,177.382 171.296,177.523 171.296 C 177.663 171.296,177.778 171.213,177.778 171.111 C 177.778 171.009,177.865 170.926,177.971 170.926 C 178.364 170.926,179.772 169.704,179.998 169.167 C 180.126 168.861,180.346 168.369,180.486 168.073 C 181.253 166.454,180.572 160.809,179.275 158.033 C 178.069 155.452,174.915 151.976,173.289 151.436 C 173.140 151.387,173.022 150.846,172.963 149.944 C 172.890 148.826,172.819 148.562,172.623 148.684 M23.017 151.348 C 22.978 153.402,23.216 154.413,23.543 153.583 C 23.715 153.146,23.722 150.848,23.554 150.000 C 23.295 148.689,23.056 149.289,23.017 151.348 M35.996 151.286 C 34.514 152.204,32.134 155.205,31.161 157.384 C 29.795 160.442,29.736 160.736,29.729 164.475 C 29.725 166.376,29.667 167.987,29.599 168.055 C 29.420 168.235,28.519 167.595,28.519 167.288 C 28.519 167.143,28.394 166.977,28.241 166.919 C 28.088 166.860,27.963 166.663,27.963 166.481 C 27.963 166.300,27.838 166.103,27.685 166.044 C 27.532 165.986,27.407 165.777,27.407 165.581 C 27.407 165.385,27.282 165.177,27.130 165.118 C 26.977 165.060,26.852 164.851,26.852 164.655 C 26.852 164.459,26.727 164.251,26.574 164.192 C 26.415 164.131,26.296 163.855,26.296 163.544 C 26.296 163.223,26.178 162.957,26.006 162.891 C 25.818 162.819,25.755 162.654,25.828 162.423 C 25.902 162.190,25.805 161.939,25.549 161.700 C 25.332 161.499,25.172 161.179,25.192 160.991 C 25.265 160.299,25.179 160.000,24.907 160.000 C 24.707 160.000,24.630 160.206,24.630 160.741 C 24.630 161.276,24.707 161.481,24.907 161.481 C 25.113 161.481,25.185 161.698,25.185 162.315 C 25.185 162.932,25.257 163.148,25.463 163.148 C 25.648 163.148,25.741 163.333,25.741 163.704 C 25.741 164.074,25.833 164.259,26.019 164.259 C 26.204 164.259,26.296 164.444,26.296 164.815 C 26.296 165.185,26.389 165.370,26.574 165.370 C 26.759 165.370,26.852 165.556,26.852 165.926 C 26.852 166.296,26.944 166.481,27.130 166.481 C 27.282 166.481,27.407 166.606,27.407 166.759 C 27.407 166.912,27.532 167.037,27.685 167.037 C 27.844 167.037,27.963 167.204,27.963 167.428 C 27.963 167.642,28.150 168.023,28.380 168.274 C 29.601 169.611,30.649 170.566,31.128 170.778 C 31.424 170.909,31.667 171.079,31.667 171.156 C 31.667 171.233,31.783 171.296,31.925 171.296 C 32.067 171.296,32.231 171.421,32.289 171.574 C 32.348 171.727,32.607 171.852,32.865 171.852 C 33.158 171.852,33.333 171.956,33.333 172.130 C 33.333 172.315,33.519 172.407,33.889 172.407 C 34.259 172.407,34.444 172.500,34.444 172.685 C 34.444 172.868,34.627 172.963,34.980 172.963 C 35.286 172.963,35.562 173.082,35.623 173.241 C 35.689 173.413,35.970 173.519,36.363 173.519 C 36.756 173.519,37.038 173.624,37.104 173.796 C 37.181 173.996,37.493 174.074,38.215 174.074 C 38.937 174.074,39.250 174.152,39.326 174.352 C 39.407 174.562,39.748 174.630,40.735 174.630 C 41.769 174.630,42.037 174.687,42.037 174.907 C 42.037 175.149,42.881 175.185,48.519 175.185 L 55.000 175.185 55.000 169.617 C 55.000 162.612,55.436 163.333,51.197 163.333 C 48.560 163.333,47.788 163.280,47.824 163.102 C 47.857 162.939,47.497 162.854,46.611 162.815 C 45.719 162.776,45.322 162.682,45.249 162.491 C 45.180 162.312,44.873 162.222,44.332 162.222 C 43.732 162.222,43.519 162.149,43.519 161.944 C 43.519 161.762,43.336 161.667,42.983 161.667 C 42.677 161.667,42.401 161.547,42.340 161.389 C 42.282 161.236,42.009 161.111,41.734 161.111 C 41.459 161.111,41.281 161.064,41.339 161.007 C 41.396 160.950,40.963 160.429,40.377 159.850 C 39.791 159.270,39.253 158.608,39.180 158.377 C 39.107 158.146,38.970 158.005,38.876 158.064 C 38.732 158.153,38.655 157.768,38.720 157.285 C 38.729 157.218,38.604 157.089,38.443 156.998 C 38.250 156.891,38.148 156.577,38.148 156.096 C 38.148 155.612,38.053 155.322,37.870 155.252 C 37.677 155.178,37.593 154.877,37.593 154.262 C 37.593 153.703,37.491 153.294,37.315 153.148 C 37.139 153.002,37.037 152.594,37.037 152.034 C 37.037 150.996,36.773 150.806,35.996 151.286 M23.539 155.927 C 23.517 156.532,23.587 157.057,23.698 157.126 C 23.806 157.193,23.847 157.325,23.788 157.420 C 23.730 157.515,23.763 157.593,23.862 157.593 C 24.352 157.593,24.308 155.129,23.815 154.940 C 23.642 154.874,23.568 155.139,23.539 155.927 M24.208 157.891 C 23.999 158.100,24.051 159.593,24.272 159.730 C 24.544 159.898,24.630 159.775,24.743 159.051 C 24.842 158.422,24.474 157.625,24.208 157.891 " stroke="none" fill="#fca804" fill-rule="evenodd"></path><path id="path2" d="M115.556 31.944 C 115.682 32.097,115.869 32.222,115.971 32.222 C 116.075 32.222,116.055 32.099,115.926 31.944 C 115.799 31.792,115.612 31.667,115.510 31.667 C 115.407 31.667,115.427 31.789,115.556 31.944 M113.649 34.900 C 113.832 35.150,114.106 35.405,114.259 35.467 C 114.412 35.529,114.292 35.324,113.993 35.012 C 113.337 34.327,113.197 34.282,113.649 34.900 M77.731 56.062 C 78.164 56.101,78.873 56.101,79.306 56.062 C 79.738 56.023,79.384 55.991,78.519 55.991 C 77.653 55.991,77.299 56.023,77.731 56.062 M88.458 56.065 C 92.449 56.093,99.032 56.093,103.088 56.065 C 107.144 56.037,103.880 56.014,95.833 56.014 C 87.787 56.014,84.468 56.037,88.458 56.065 M218.889 83.333 L 218.889 86.852 222.130 86.852 L 225.370 86.852 225.370 95.833 L 225.370 104.815 228.889 104.815 L 232.407 104.815 232.407 95.833 L 232.407 86.852 235.648 86.852 L 238.889 86.852 238.889 83.333 L 238.889 79.815 228.889 79.815 L 218.889 79.815 218.889 83.333 M240.679 79.938 C 240.437 80.181,240.553 80.926,240.833 80.926 C 241.007 80.926,241.111 81.101,241.111 81.395 C 241.111 81.653,241.236 81.911,241.389 81.970 C 241.542 82.029,241.667 82.193,241.667 82.335 C 241.667 82.477,241.792 82.593,241.944 82.593 C 242.130 82.593,242.222 82.778,242.222 83.148 C 242.222 83.519,242.315 83.704,242.500 83.704 C 242.674 83.704,242.778 83.879,242.778 84.172 C 242.778 84.430,242.903 84.689,243.056 84.748 C 243.208 84.806,243.333 85.054,243.333 85.298 C 243.333 85.568,243.442 85.741,243.611 85.741 C 243.764 85.741,243.889 85.866,243.889 86.019 C 243.889 86.171,244.014 86.296,244.167 86.296 C 244.352 86.296,244.444 86.481,244.444 86.852 C 244.444 87.222,244.537 87.407,244.722 87.407 C 244.907 87.407,245.000 87.593,245.000 87.963 C 245.000 88.333,245.093 88.519,245.278 88.519 C 245.431 88.519,245.556 88.635,245.556 88.776 C 245.556 88.918,245.679 89.082,245.830 89.140 C 245.981 89.198,246.060 89.363,246.005 89.506 C 245.950 89.650,246.034 89.897,246.193 90.055 C 246.352 90.214,246.481 90.519,246.481 90.733 C 246.481 90.948,246.606 91.171,246.759 91.229 C 246.912 91.288,247.037 91.496,247.037 91.692 C 247.037 91.888,247.162 92.097,247.315 92.155 C 247.468 92.214,247.593 92.378,247.593 92.520 C 247.593 92.662,247.718 92.778,247.870 92.778 C 248.056 92.778,248.148 92.963,248.148 93.333 C 248.148 93.704,248.241 93.889,248.426 93.889 C 248.611 93.889,248.704 94.074,248.704 94.444 C 248.704 94.815,248.796 95.000,248.981 95.000 C 249.134 95.000,249.259 95.125,249.259 95.278 C 249.259 95.431,249.384 95.556,249.537 95.556 C 249.777 95.556,249.815 96.193,249.815 100.185 L 249.815 104.815 253.333 104.815 L 256.852 104.815 256.852 100.185 C 256.852 96.193,256.890 95.556,257.130 95.556 C 257.282 95.556,257.407 95.439,257.407 95.298 C 257.407 95.156,257.532 94.992,257.685 94.933 C 257.838 94.874,257.963 94.624,257.963 94.377 C 257.963 94.131,258.088 93.881,258.241 93.822 C 258.394 93.763,258.519 93.504,258.519 93.247 C 258.519 92.953,258.623 92.778,258.796 92.778 C 258.949 92.778,259.074 92.615,259.074 92.417 C 259.074 92.218,259.282 91.831,259.537 91.557 C 259.792 91.282,260.000 90.861,260.000 90.621 C 260.000 90.357,260.110 90.185,260.278 90.185 C 260.463 90.185,260.556 90.000,260.556 89.630 C 260.556 89.259,260.648 89.074,260.833 89.074 C 261.019 89.074,261.111 88.889,261.111 88.519 C 261.111 88.148,261.204 87.963,261.389 87.963 C 261.542 87.963,261.667 87.838,261.667 87.685 C 261.667 87.532,261.792 87.407,261.944 87.407 C 262.130 87.407,262.222 87.222,262.222 86.852 C 262.222 86.481,262.315 86.296,262.500 86.296 C 262.673 86.296,262.778 86.121,262.778 85.833 C 262.778 85.545,262.883 85.370,263.056 85.370 C 263.210 85.370,263.333 85.206,263.333 85.000 C 263.333 84.794,263.457 84.630,263.611 84.630 C 263.781 84.630,263.889 84.457,263.889 84.186 C 263.889 83.943,264.014 83.695,264.167 83.637 C 264.319 83.578,264.444 83.319,264.444 83.061 C 264.444 82.768,264.548 82.593,264.722 82.593 C 264.907 82.593,265.000 82.407,265.000 82.037 C 265.000 81.667,265.093 81.481,265.278 81.481 C 265.431 81.481,265.556 81.356,265.556 81.204 C 265.556 81.051,265.644 80.926,265.753 80.926 C 265.862 80.926,265.924 80.697,265.892 80.417 L 265.833 79.907 261.620 79.858 C 257.954 79.814,257.407 79.844,257.407 80.089 C 257.407 80.244,257.282 80.370,257.130 80.370 C 256.944 80.370,256.852 80.556,256.852 80.926 C 256.852 81.296,256.759 81.481,256.574 81.481 C 256.421 81.481,256.296 81.598,256.296 81.739 C 256.296 81.881,256.171 82.045,256.019 82.104 C 255.866 82.163,255.741 82.422,255.741 82.679 C 255.741 82.973,255.637 83.148,255.463 83.148 C 255.278 83.148,255.185 83.333,255.185 83.704 C 255.185 84.074,255.093 84.259,254.907 84.259 C 254.722 84.259,254.630 84.444,254.630 84.815 C 254.630 85.185,254.537 85.370,254.352 85.370 C 254.199 85.370,254.074 85.486,254.074 85.628 C 254.074 85.770,253.949 85.934,253.796 85.993 C 253.644 86.052,253.519 86.269,253.519 86.476 C 253.519 86.687,253.396 86.852,253.241 86.852 C 253.088 86.852,252.963 86.727,252.963 86.574 C 252.963 86.421,252.880 86.296,252.778 86.296 C 252.676 86.296,252.593 86.088,252.593 85.833 C 252.593 85.545,252.488 85.370,252.315 85.370 C 252.141 85.370,252.037 85.195,252.037 84.902 C 252.037 84.644,251.912 84.385,251.759 84.326 C 251.606 84.268,251.481 84.018,251.481 83.771 C 251.481 83.524,251.356 83.274,251.204 83.215 C 251.051 83.156,250.926 82.992,250.926 82.851 C 250.926 82.709,250.801 82.593,250.648 82.593 C 250.463 82.593,250.370 82.407,250.370 82.037 C 250.370 81.667,250.278 81.481,250.093 81.481 C 249.919 81.481,249.815 81.306,249.815 81.013 C 249.815 80.755,249.690 80.496,249.537 80.437 C 249.384 80.379,249.259 80.215,249.259 80.073 C 249.259 79.799,240.949 79.668,240.679 79.938 M267.593 92.315 L 267.593 104.815 271.111 104.815 L 274.630 104.815 274.630 101.574 L 274.630 98.333 278.148 98.333 C 281.152 98.333,281.667 98.293,281.667 98.056 C 281.667 97.870,281.852 97.778,282.222 97.778 C 282.593 97.778,282.778 97.685,282.778 97.500 C 282.778 97.315,282.963 97.222,283.333 97.222 C 283.704 97.222,283.889 97.130,283.889 96.944 C 283.889 96.792,284.014 96.667,284.167 96.667 C 284.319 96.667,284.444 96.542,284.444 96.389 C 284.444 96.236,284.569 96.111,284.722 96.111 C 284.875 96.111,285.000 95.986,285.000 95.833 C 285.000 95.681,285.125 95.556,285.278 95.556 C 285.431 95.556,285.556 95.431,285.556 95.278 C 285.556 95.125,285.681 95.000,285.833 95.000 C 285.986 95.000,286.111 94.875,286.111 94.722 C 286.111 94.569,286.236 94.444,286.389 94.444 C 286.574 94.444,286.667 94.259,286.667 93.889 C 286.667 93.519,286.759 93.333,286.944 93.333 C 287.114 93.333,287.222 93.161,287.222 92.890 C 287.222 92.646,287.347 92.399,287.500 92.340 C 287.731 92.252,287.778 91.725,287.778 89.195 C 287.778 86.720,287.726 86.114,287.500 85.926 C 287.347 85.799,287.222 85.497,287.222 85.255 C 287.222 84.987,287.113 84.815,286.944 84.815 C 286.759 84.815,286.667 84.630,286.667 84.259 C 286.667 83.889,286.574 83.704,286.389 83.704 C 286.236 83.704,286.111 83.579,286.111 83.426 C 286.111 83.273,285.986 83.148,285.833 83.148 C 285.681 83.148,285.556 83.023,285.556 82.870 C 285.556 82.718,285.431 82.593,285.278 82.593 C 285.125 82.593,285.000 82.468,285.000 82.315 C 285.000 82.162,284.875 82.037,284.722 82.037 C 284.569 82.037,284.444 81.912,284.444 81.759 C 284.444 81.606,284.319 81.481,284.167 81.481 C 284.014 81.481,283.889 81.356,283.889 81.204 C 283.889 81.019,283.704 80.926,283.333 80.926 C 282.963 80.926,282.778 80.833,282.778 80.648 C 282.778 80.463,282.593 80.370,282.222 80.370 C 281.852 80.370,281.667 80.278,281.667 80.093 C 281.667 79.851,280.761 79.815,274.630 79.815 L 267.593 79.815 267.593 92.315 M290.370 92.313 L 290.370 104.815 298.519 104.815 L 306.667 104.815 306.667 101.852 L 306.667 98.889 302.315 98.889 L 297.963 98.889 297.963 96.944 L 297.963 95.000 301.759 95.000 L 305.556 95.000 305.556 92.037 L 305.556 89.074 301.759 89.074 L 297.963 89.074 297.963 87.407 L 297.963 85.741 302.320 85.741 L 306.676 85.741 306.625 82.824 L 306.574 79.907 298.472 79.859 L 290.370 79.811 290.370 92.313 M318.585 80.093 C 318.525 80.251,318.249 80.370,317.943 80.370 C 317.590 80.370,317.407 80.465,317.407 80.648 C 317.407 80.822,317.232 80.926,316.939 80.926 C 316.681 80.926,316.422 81.051,316.363 81.204 C 316.305 81.356,316.057 81.481,315.814 81.481 C 315.543 81.481,315.370 81.590,315.370 81.759 C 315.370 81.912,315.245 82.037,315.093 82.037 C 314.940 82.037,314.815 82.162,314.815 82.315 C 314.815 82.500,314.630 82.593,314.259 82.593 C 313.889 82.593,313.704 82.685,313.704 82.870 C 313.704 83.023,313.579 83.148,313.426 83.148 C 313.273 83.148,313.148 83.273,313.148 83.426 C 313.148 83.579,313.023 83.704,312.870 83.704 C 312.685 83.704,312.593 83.889,312.593 84.259 C 312.593 84.630,312.500 84.815,312.315 84.815 C 312.162 84.815,312.037 84.940,312.037 85.093 C 312.037 85.245,311.912 85.370,311.759 85.370 C 311.574 85.370,311.481 85.556,311.481 85.926 C 311.481 86.266,311.394 86.464,311.254 86.435 C 311.129 86.410,310.996 86.597,310.959 86.852 C 310.921 87.106,310.773 87.381,310.630 87.463 C 310.457 87.562,310.370 87.948,310.370 88.620 C 310.370 89.364,310.302 89.630,310.110 89.630 C 309.899 89.630,309.845 90.141,309.825 92.315 C 309.805 94.617,309.842 95.000,310.086 95.000 C 310.307 95.000,310.370 95.226,310.370 96.024 C 310.370 96.764,310.448 97.078,310.648 97.155 C 310.801 97.214,310.926 97.464,310.926 97.711 C 310.926 97.958,311.051 98.208,311.204 98.266 C 311.356 98.325,311.481 98.531,311.481 98.724 C 311.481 99.094,312.093 99.815,312.407 99.815 C 312.509 99.815,312.593 100.065,312.593 100.370 C 312.593 100.741,312.685 100.926,312.870 100.926 C 313.023 100.926,313.148 101.051,313.148 101.204 C 313.148 101.356,313.273 101.481,313.426 101.481 C 313.579 101.481,313.704 101.606,313.704 101.759 C 313.704 101.944,313.889 102.037,314.259 102.037 C 314.630 102.037,314.815 102.130,314.815 102.315 C 314.815 102.468,314.940 102.593,315.093 102.593 C 315.245 102.593,315.370 102.718,315.370 102.870 C 315.370 103.040,315.543 103.148,315.814 103.148 C 316.057 103.148,316.305 103.273,316.363 103.426 C 316.422 103.579,316.681 103.704,316.939 103.704 C 317.232 103.704,317.407 103.808,317.407 103.981 C 317.407 104.164,317.590 104.259,317.943 104.259 C 318.249 104.259,318.525 104.379,318.585 104.537 C 318.676 104.772,319.306 104.815,322.679 104.815 C 326.100 104.815,326.667 104.775,326.667 104.537 C 326.667 104.336,326.873 104.259,327.413 104.259 C 327.906 104.259,328.196 104.165,328.266 103.981 C 328.325 103.829,328.554 103.704,328.775 103.704 C 329.172 103.704,329.815 103.130,329.815 102.776 C 329.815 102.675,330.065 102.593,330.370 102.593 C 330.741 102.593,330.926 102.500,330.926 102.315 C 330.926 102.162,331.051 102.037,331.204 102.037 C 331.356 102.037,331.481 101.912,331.481 101.759 C 331.481 101.606,331.606 101.481,331.759 101.481 C 331.912 101.481,332.037 101.356,332.037 101.204 C 332.037 101.051,332.162 100.926,332.315 100.926 C 332.468 100.926,332.593 100.801,332.593 100.648 C 332.593 100.495,332.718 100.370,332.870 100.370 C 333.023 100.370,333.148 100.245,333.148 100.093 C 333.148 99.940,333.273 99.815,333.426 99.815 C 333.595 99.815,333.704 99.642,333.704 99.372 C 333.704 99.128,333.829 98.881,333.981 98.822 C 334.134 98.763,334.259 98.513,334.259 98.266 C 334.259 98.019,334.384 97.769,334.537 97.711 C 334.720 97.640,334.815 97.350,334.815 96.858 C 334.815 96.318,334.892 96.111,335.093 96.111 C 335.313 96.111,335.370 95.842,335.370 94.802 C 335.370 93.884,335.454 93.409,335.648 93.214 C 335.801 93.062,335.926 92.657,335.926 92.315 C 335.926 91.973,335.801 91.568,335.648 91.415 C 335.454 91.221,335.370 90.745,335.370 89.828 C 335.370 88.787,335.313 88.519,335.093 88.519 C 334.892 88.519,334.815 88.312,334.815 87.772 C 334.815 87.279,334.720 86.989,334.537 86.919 C 334.384 86.860,334.259 86.622,334.259 86.389 C 334.259 86.156,334.134 85.918,333.981 85.859 C 333.829 85.800,333.704 85.541,333.704 85.284 C 333.704 84.990,333.600 84.815,333.426 84.815 C 333.273 84.815,333.148 84.690,333.148 84.537 C 333.148 84.384,333.023 84.259,332.870 84.259 C 332.718 84.259,332.593 84.134,332.593 83.981 C 332.593 83.829,332.468 83.704,332.315 83.704 C 332.162 83.704,332.037 83.579,332.037 83.426 C 332.037 83.273,331.912 83.148,331.759 83.148 C 331.606 83.148,331.481 83.023,331.481 82.870 C 331.481 82.718,331.356 82.593,331.204 82.593 C 331.051 82.593,330.926 82.468,330.926 82.315 C 330.926 82.130,330.741 82.037,330.370 82.037 C 330.065 82.037,329.815 81.954,329.815 81.852 C 329.815 81.538,329.094 80.926,328.724 80.926 C 328.531 80.926,328.325 80.801,328.266 80.648 C 328.196 80.465,327.906 80.370,327.413 80.370 C 326.873 80.370,326.667 80.294,326.667 80.093 C 326.667 79.854,326.100 79.815,322.679 79.815 C 319.306 79.815,318.676 79.858,318.585 80.093 M339.630 92.315 L 339.630 104.815 340.463 104.815 L 341.296 104.815 341.296 99.907 L 341.296 95.000 344.259 95.000 C 346.770 95.000,347.222 95.042,347.222 95.278 C 347.222 95.431,347.347 95.556,347.500 95.556 C 347.685 95.556,347.778 95.741,347.778 96.111 C 347.778 96.481,347.870 96.667,348.056 96.667 C 348.229 96.667,348.333 96.842,348.333 97.135 C 348.333 97.393,348.458 97.652,348.611 97.711 C 348.764 97.769,348.889 97.933,348.889 98.075 C 348.889 98.217,349.014 98.333,349.167 98.333 C 349.352 98.333,349.444 98.519,349.444 98.889 C 349.444 99.259,349.537 99.444,349.722 99.444 C 349.895 99.444,350.000 99.619,350.000 99.907 C 350.000 100.195,350.105 100.370,350.278 100.370 C 350.431 100.370,350.556 100.495,350.556 100.648 C 350.556 100.801,350.639 100.926,350.741 100.926 C 350.843 100.926,350.926 101.087,350.926 101.283 C 350.926 101.479,351.051 101.765,351.204 101.918 C 351.356 102.071,351.481 102.371,351.481 102.585 C 351.481 102.799,351.606 103.023,351.759 103.081 C 351.912 103.140,352.037 103.340,352.037 103.525 C 352.037 103.711,352.162 103.987,352.315 104.140 C 352.468 104.293,352.593 104.507,352.593 104.616 C 352.593 104.735,353.037 104.815,353.704 104.815 L 354.815 104.815 354.815 104.259 C 354.815 103.889,354.722 103.704,354.537 103.704 C 354.352 103.704,354.259 103.519,354.259 103.148 C 354.259 102.778,354.167 102.593,353.981 102.593 C 353.808 102.593,353.704 102.417,353.704 102.124 C 353.704 101.866,353.579 101.607,353.426 101.548 C 353.273 101.490,353.148 101.326,353.148 101.184 C 353.148 101.042,353.023 100.926,352.870 100.926 C 352.701 100.926,352.593 100.753,352.593 100.483 C 352.593 100.239,352.468 99.992,352.315 99.933 C 352.162 99.874,352.037 99.615,352.037 99.358 C 352.037 99.064,351.933 98.889,351.759 98.889 C 351.574 98.889,351.481 98.704,351.481 98.333 C 351.481 97.963,351.389 97.778,351.204 97.778 C 351.051 97.778,350.926 97.653,350.926 97.500 C 350.926 97.347,350.843 97.222,350.741 97.222 C 350.639 97.222,350.556 97.018,350.556 96.768 C 350.556 96.519,350.443 96.248,350.305 96.167 C 349.752 95.840,349.818 95.000,350.396 95.000 C 350.744 95.000,350.926 94.904,350.926 94.722 C 350.926 94.537,351.111 94.444,351.481 94.444 C 351.852 94.444,352.037 94.352,352.037 94.167 C 352.037 93.981,352.222 93.889,352.593 93.889 C 352.963 93.889,353.148 93.796,353.148 93.611 C 353.148 93.458,353.273 93.333,353.426 93.333 C 353.579 93.333,353.704 93.208,353.704 93.056 C 353.704 92.903,353.786 92.778,353.887 92.778 C 354.169 92.778,354.815 92.169,354.815 91.903 C 354.815 91.773,354.940 91.667,355.093 91.667 C 355.262 91.667,355.370 91.494,355.370 91.224 C 355.370 90.980,355.495 90.732,355.648 90.674 C 355.859 90.593,355.926 90.252,355.926 89.265 C 355.926 88.231,355.983 87.963,356.204 87.963 C 356.398 87.963,356.481 87.767,356.481 87.309 C 356.481 86.899,356.378 86.615,356.204 86.548 C 356.000 86.470,355.926 86.150,355.926 85.351 C 355.926 84.504,355.864 84.259,355.648 84.259 C 355.463 84.259,355.370 84.074,355.370 83.704 C 355.370 83.333,355.278 83.148,355.093 83.148 C 354.940 83.148,354.815 83.023,354.815 82.870 C 354.815 82.718,354.690 82.593,354.537 82.593 C 354.384 82.593,354.259 82.468,354.259 82.315 C 354.259 82.162,354.134 82.037,353.981 82.037 C 353.829 82.037,353.704 81.912,353.704 81.759 C 353.704 81.606,353.579 81.481,353.426 81.481 C 353.273 81.481,353.148 81.356,353.148 81.204 C 353.148 81.051,353.023 80.926,352.870 80.926 C 352.718 80.926,352.593 80.801,352.593 80.648 C 352.593 80.463,352.407 80.370,352.037 80.370 C 351.667 80.370,351.481 80.278,351.481 80.093 C 351.481 79.851,350.700 79.815,345.556 79.815 L 339.630 79.815 339.630 92.315 M360.185 92.315 L 360.185 104.815 361.019 104.815 L 361.852 104.815 361.852 93.704 C 361.852 83.951,361.886 82.593,362.130 82.593 C 362.282 82.593,362.407 82.718,362.407 82.870 C 362.407 83.023,362.532 83.148,362.685 83.148 C 362.838 83.148,362.963 83.273,362.963 83.426 C 362.963 83.579,363.088 83.704,363.241 83.704 C 363.394 83.704,363.519 83.829,363.519 83.981 C 363.519 84.134,363.644 84.259,363.796 84.259 C 363.949 84.259,364.074 84.384,364.074 84.537 C 364.074 84.690,364.199 84.815,364.352 84.815 C 364.505 84.815,364.630 84.940,364.630 85.093 C 364.630 85.245,364.719 85.370,364.828 85.370 C 365.084 85.370,365.556 85.841,365.556 86.098 C 365.556 86.207,365.681 86.296,365.833 86.296 C 365.986 86.296,366.111 86.421,366.111 86.574 C 366.111 86.727,366.236 86.852,366.389 86.852 C 366.542 86.852,366.667 86.977,366.667 87.130 C 366.667 87.282,366.792 87.407,366.944 87.407 C 367.097 87.407,367.222 87.532,367.222 87.685 C 367.222 87.838,367.347 87.963,367.500 87.963 C 367.653 87.963,367.778 88.088,367.778 88.241 C 367.778 88.394,367.903 88.519,368.056 88.519 C 368.208 88.519,368.333 88.644,368.333 88.796 C 368.333 88.949,368.458 89.074,368.611 89.074 C 368.764 89.074,368.889 89.199,368.889 89.352 C 368.889 89.505,369.014 89.630,369.167 89.630 C 369.319 89.630,369.444 89.755,369.444 89.907 C 369.444 90.060,369.569 90.185,369.722 90.185 C 369.875 90.185,370.000 90.310,370.000 90.463 C 370.000 90.616,370.125 90.741,370.278 90.741 C 370.431 90.741,370.556 90.866,370.556 91.019 C 370.556 91.171,370.681 91.296,370.833 91.296 C 370.986 91.296,371.111 91.421,371.111 91.574 C 371.111 91.727,371.236 91.852,371.389 91.852 C 371.542 91.852,371.667 91.977,371.667 92.130 C 371.667 92.282,371.756 92.407,371.865 92.407 C 372.121 92.407,372.593 92.879,372.593 93.135 C 372.593 93.247,372.957 93.333,373.426 93.333 C 374.043 93.333,374.259 93.261,374.259 93.056 C 374.259 92.903,374.384 92.778,374.537 92.778 C 374.690 92.778,374.815 92.694,374.815 92.593 C 374.815 92.491,374.940 92.407,375.093 92.407 C 375.245 92.407,375.370 92.282,375.370 92.130 C 375.370 91.977,375.495 91.852,375.648 91.852 C 375.801 91.852,375.926 91.727,375.926 91.574 C 375.926 91.421,376.051 91.296,376.204 91.296 C 376.356 91.296,376.481 91.171,376.481 91.019 C 376.481 90.866,376.606 90.741,376.759 90.741 C 376.912 90.741,377.037 90.616,377.037 90.463 C 377.037 90.310,377.162 90.185,377.315 90.185 C 377.468 90.185,377.593 90.060,377.593 89.907 C 377.593 89.755,377.718 89.630,377.870 89.630 C 378.023 89.630,378.148 89.505,378.148 89.352 C 378.148 89.199,378.273 89.074,378.426 89.074 C 378.579 89.074,378.704 88.949,378.704 88.796 C 378.704 88.644,378.787 88.519,378.889 88.519 C 378.991 88.519,379.074 88.394,379.074 88.241 C 379.074 88.088,379.199 87.963,379.352 87.963 C 379.505 87.963,379.630 87.838,379.630 87.685 C 379.630 87.532,379.755 87.407,379.907 87.407 C 380.060 87.407,380.185 87.282,380.185 87.130 C 380.185 86.977,380.310 86.852,380.463 86.852 C 380.616 86.852,380.741 86.727,380.741 86.574 C 380.741 86.421,380.866 86.296,381.019 86.296 C 381.171 86.296,381.296 86.171,381.296 86.019 C 381.296 85.866,381.421 85.741,381.574 85.741 C 381.727 85.741,381.852 85.657,381.852 85.556 C 381.852 85.454,381.977 85.370,382.130 85.370 C 382.282 85.370,382.407 85.245,382.407 85.093 C 382.407 84.940,382.532 84.815,382.685 84.815 C 382.838 84.815,382.963 84.690,382.963 84.537 C 382.963 84.384,383.088 84.259,383.241 84.259 C 383.394 84.259,383.519 84.134,383.519 83.981 C 383.519 83.829,383.644 83.704,383.796 83.704 C 383.949 83.704,384.074 83.579,384.074 83.426 C 384.074 83.273,384.199 83.148,384.352 83.148 C 384.505 83.148,384.630 83.023,384.630 82.870 C 384.630 82.718,384.755 82.593,384.907 82.593 C 385.151 82.593,385.185 83.951,385.185 93.704 L 385.185 104.815 386.204 104.815 L 387.222 104.815 387.222 92.315 L 387.222 79.815 385.926 79.815 C 384.897 79.815,384.630 79.872,384.630 80.093 C 384.630 80.245,384.505 80.370,384.352 80.370 C 384.199 80.370,384.074 80.495,384.074 80.648 C 384.074 80.801,383.949 80.926,383.796 80.926 C 383.644 80.926,383.519 81.051,383.519 81.204 C 383.519 81.356,383.394 81.481,383.241 81.481 C 383.088 81.481,382.963 81.606,382.963 81.759 C 382.963 81.912,382.838 82.037,382.685 82.037 C 382.532 82.037,382.407 82.162,382.407 82.315 C 382.407 82.468,382.282 82.593,382.130 82.593 C 381.977 82.593,381.852 82.718,381.852 82.870 C 381.852 83.023,381.727 83.148,381.574 83.148 C 381.421 83.148,381.296 83.273,381.296 83.426 C 381.296 83.579,381.171 83.704,381.019 83.704 C 380.866 83.704,380.741 83.829,380.741 83.981 C 380.741 84.134,380.616 84.259,380.463 84.259 C 380.310 84.259,380.185 84.384,380.185 84.537 C 380.185 84.690,380.060 84.815,379.907 84.815 C 379.755 84.815,379.630 84.892,379.630 84.986 C 379.630 85.208,378.541 86.296,378.319 86.296 C 378.225 86.296,378.148 86.421,378.148 86.574 C 378.148 86.727,378.023 86.852,377.870 86.852 C 377.718 86.852,377.593 86.977,377.593 87.130 C 377.593 87.282,377.468 87.407,377.315 87.407 C 377.162 87.407,377.037 87.532,377.037 87.685 C 377.037 87.838,376.912 87.963,376.759 87.963 C 376.606 87.963,376.481 88.088,376.481 88.241 C 376.481 88.394,376.356 88.519,376.204 88.519 C 376.051 88.519,375.926 88.644,375.926 88.796 C 375.926 88.949,375.801 89.074,375.648 89.074 C 375.495 89.074,375.370 89.199,375.370 89.352 C 375.370 89.505,375.245 89.630,375.093 89.630 C 374.940 89.630,374.815 89.755,374.815 89.907 C 374.815 90.060,374.690 90.185,374.537 90.185 C 374.384 90.185,374.259 90.310,374.259 90.463 C 374.259 90.616,374.134 90.741,373.981 90.741 C 373.829 90.741,373.704 90.866,373.704 91.019 C 373.704 91.171,373.579 91.296,373.426 91.296 C 373.273 91.296,373.148 91.171,373.148 91.019 C 373.148 90.866,373.023 90.741,372.870 90.741 C 372.718 90.741,372.593 90.616,372.593 90.463 C 372.593 90.310,372.468 90.185,372.315 90.185 C 372.162 90.185,372.037 90.060,372.037 89.907 C 372.037 89.755,371.954 89.630,371.852 89.630 C 371.750 89.630,371.667 89.505,371.667 89.352 C 371.667 89.199,371.542 89.074,371.389 89.074 C 371.236 89.074,371.111 88.949,371.111 88.796 C 371.111 88.644,370.986 88.519,370.833 88.519 C 370.681 88.519,370.556 88.394,370.556 88.241 C 370.556 88.088,370.431 87.963,370.278 87.963 C 370.125 87.963,370.000 87.838,370.000 87.685 C 370.000 87.532,369.875 87.407,369.722 87.407 C 369.569 87.407,369.444 87.282,369.444 87.130 C 369.444 86.977,369.319 86.852,369.167 86.852 C 369.014 86.852,368.889 86.727,368.889 86.574 C 368.889 86.421,368.764 86.296,368.611 86.296 C 368.458 86.296,368.333 86.171,368.333 86.019 C 368.333 85.866,368.208 85.741,368.056 85.741 C 367.903 85.741,367.778 85.657,367.778 85.556 C 367.778 85.454,367.653 85.370,367.500 85.370 C 367.347 85.370,367.222 85.245,367.222 85.093 C 367.222 84.940,367.097 84.815,366.944 84.815 C 366.792 84.815,366.667 84.690,366.667 84.537 C 366.667 84.384,366.542 84.259,366.389 84.259 C 366.236 84.259,366.111 84.134,366.111 83.981 C 366.111 83.829,365.986 83.704,365.833 83.704 C 365.681 83.704,365.556 83.579,365.556 83.426 C 365.556 83.273,365.431 83.148,365.278 83.148 C 365.125 83.148,365.000 83.023,365.000 82.870 C 365.000 82.718,364.917 82.593,364.815 82.593 C 364.713 82.593,364.630 82.468,364.630 82.315 C 364.630 82.162,364.505 82.037,364.352 82.037 C 364.199 82.037,364.074 81.912,364.074 81.759 C 364.074 81.606,363.949 81.481,363.796 81.481 C 363.644 81.481,363.519 81.356,363.519 81.204 C 363.519 81.051,363.394 80.926,363.241 80.926 C 363.088 80.926,362.963 80.801,362.963 80.648 C 362.963 80.495,362.838 80.370,362.685 80.370 C 362.532 80.370,362.407 80.245,362.407 80.093 C 362.407 79.877,362.160 79.815,361.296 79.815 L 360.185 79.815 360.185 92.315 M325.067 81.759 C 325.137 81.941,325.425 82.037,325.900 82.037 C 326.375 82.037,326.664 82.133,326.734 82.315 C 326.792 82.468,327.042 82.593,327.289 82.593 C 327.536 82.593,327.786 82.718,327.845 82.870 C 327.903 83.023,328.162 83.148,328.420 83.148 C 328.713 83.148,328.889 83.252,328.889 83.426 C 328.889 83.579,328.972 83.704,329.074 83.704 C 329.316 83.704,331.481 85.870,331.481 86.111 C 331.481 86.213,331.606 86.296,331.759 86.296 C 331.933 86.296,332.037 86.472,332.037 86.765 C 332.037 87.023,332.162 87.282,332.315 87.340 C 332.468 87.399,332.593 87.649,332.593 87.896 C 332.593 88.143,332.718 88.393,332.870 88.452 C 333.052 88.521,333.148 88.810,333.148 89.285 C 333.148 89.760,333.244 90.049,333.426 90.118 C 333.650 90.204,333.704 90.628,333.704 92.315 C 333.704 94.002,333.650 94.425,333.426 94.511 C 333.244 94.581,333.148 94.870,333.148 95.345 C 333.148 95.820,333.052 96.108,332.870 96.178 C 332.718 96.237,332.593 96.487,332.593 96.734 C 332.593 96.981,332.468 97.231,332.315 97.289 C 332.162 97.348,332.037 97.607,332.037 97.865 C 332.037 98.158,331.933 98.333,331.759 98.333 C 331.606 98.333,331.481 98.415,331.481 98.514 C 331.481 98.766,329.343 100.926,329.093 100.926 C 328.981 100.926,328.889 101.051,328.889 101.204 C 328.889 101.377,328.713 101.481,328.420 101.481 C 328.162 101.481,327.903 101.606,327.845 101.759 C 327.784 101.918,327.508 102.037,327.202 102.037 C 326.850 102.037,326.667 102.132,326.667 102.315 C 326.667 102.516,326.460 102.593,325.920 102.593 C 325.427 102.593,325.137 102.687,325.067 102.870 C 324.980 103.097,324.524 103.148,322.573 103.148 C 320.574 103.148,320.185 103.103,320.185 102.870 C 320.185 102.665,319.969 102.593,319.352 102.593 C 318.735 102.593,318.519 102.521,318.519 102.315 C 318.519 102.130,318.333 102.037,317.963 102.037 C 317.593 102.037,317.407 101.944,317.407 101.759 C 317.407 101.606,317.291 101.481,317.149 101.481 C 317.008 101.481,316.844 101.356,316.785 101.204 C 316.726 101.051,316.467 100.926,316.210 100.926 C 315.952 100.926,315.741 100.837,315.741 100.728 C 315.741 100.471,315.270 100.000,315.013 100.000 C 314.904 100.000,314.815 99.875,314.815 99.722 C 314.815 99.569,314.690 99.444,314.537 99.444 C 314.384 99.444,314.259 99.319,314.259 99.167 C 314.259 99.014,314.134 98.889,313.981 98.889 C 313.796 98.889,313.704 98.704,313.704 98.333 C 313.704 97.963,313.611 97.778,313.426 97.778 C 313.273 97.778,313.148 97.653,313.148 97.500 C 313.148 97.347,313.023 97.222,312.870 97.222 C 312.665 97.222,312.593 97.006,312.593 96.389 C 312.593 95.772,312.521 95.556,312.315 95.556 C 312.094 95.556,312.037 95.288,312.037 94.259 C 312.037 93.230,311.980 92.963,311.759 92.963 C 311.573 92.963,311.481 92.777,311.481 92.402 C 311.481 92.073,311.597 91.796,311.759 91.734 C 311.969 91.653,312.037 91.314,312.037 90.351 C 312.037 89.339,312.095 89.074,312.315 89.074 C 312.521 89.074,312.593 88.858,312.593 88.241 C 312.593 87.623,312.665 87.407,312.870 87.407 C 313.023 87.407,313.148 87.282,313.148 87.130 C 313.148 86.977,313.273 86.852,313.426 86.852 C 313.611 86.852,313.704 86.667,313.704 86.296 C 313.704 85.991,313.794 85.741,313.904 85.741 C 314.164 85.741,315.741 84.164,315.741 83.904 C 315.741 83.794,315.952 83.704,316.210 83.704 C 316.467 83.704,316.726 83.579,316.785 83.426 C 316.844 83.273,317.008 83.148,317.149 83.148 C 317.291 83.148,317.407 83.023,317.407 82.870 C 317.407 82.685,317.593 82.593,317.963 82.593 C 318.333 82.593,318.519 82.500,318.519 82.315 C 318.519 82.109,318.735 82.037,319.352 82.037 C 319.969 82.037,320.185 81.965,320.185 81.759 C 320.185 81.527,320.574 81.481,322.573 81.481 C 324.524 81.481,324.980 81.532,325.067 81.759 M350.000 81.759 C 350.000 81.944,350.185 82.037,350.556 82.037 C 350.926 82.037,351.111 82.130,351.111 82.315 C 351.111 82.488,351.286 82.593,351.574 82.593 C 351.862 82.593,352.037 82.698,352.037 82.870 C 352.037 83.023,352.162 83.148,352.315 83.148 C 352.468 83.148,352.593 83.273,352.593 83.426 C 352.593 83.579,352.718 83.704,352.870 83.704 C 353.040 83.704,353.148 83.876,353.148 84.147 C 353.148 84.391,353.273 84.638,353.426 84.697 C 353.579 84.755,353.704 85.014,353.704 85.272 C 353.704 85.565,353.808 85.741,353.981 85.741 C 354.208 85.741,354.259 86.049,354.259 87.407 C 354.259 88.765,354.208 89.074,353.981 89.074 C 353.796 89.074,353.704 89.259,353.704 89.630 C 353.704 90.000,353.611 90.185,353.426 90.185 C 353.273 90.185,353.148 90.263,353.148 90.358 C 353.148 90.817,350.907 92.778,350.381 92.778 C 350.084 92.778,349.716 92.903,349.563 93.056 C 349.334 93.285,348.595 93.333,345.291 93.333 L 341.296 93.333 341.296 87.407 L 341.296 81.481 345.648 81.481 C 349.393 81.481,350.000 81.520,350.000 81.759 M279.074 86.019 C 279.074 86.204,279.259 86.296,279.630 86.296 C 280.000 86.296,280.185 86.389,280.185 86.574 C 280.185 86.727,280.310 86.852,280.463 86.852 C 280.616 86.852,280.741 86.941,280.741 87.050 C 280.741 87.159,280.862 87.370,281.011 87.519 C 281.159 87.667,281.234 87.910,281.177 88.059 C 281.118 88.211,281.203 88.380,281.370 88.444 C 281.704 88.573,281.770 89.009,281.470 89.109 C 281.361 89.145,281.225 89.527,281.167 89.958 C 281.110 90.388,280.990 90.741,280.902 90.741 C 280.813 90.741,280.741 90.866,280.741 91.019 C 280.741 91.204,280.556 91.296,280.185 91.296 C 279.815 91.296,279.630 91.389,279.630 91.574 C 279.630 91.807,279.228 91.852,277.130 91.852 L 274.630 91.852 274.630 88.796 L 274.630 85.741 276.852 85.741 C 278.704 85.741,279.074 85.787,279.074 86.019 M70.775 87.049 C 70.820 87.182,70.966 87.328,71.100 87.373 C 71.238 87.419,71.308 87.350,71.262 87.211 C 71.217 87.077,71.071 86.931,70.938 86.887 C 70.799 86.840,70.729 86.910,70.775 87.049 M115.556 87.145 C 115.556 87.306,115.655 87.405,115.775 87.365 C 116.119 87.251,116.176 86.852,115.849 86.852 C 115.687 86.852,115.556 86.984,115.556 87.145 M115.556 96.389 C 115.682 96.542,115.869 96.667,115.971 96.667 C 116.075 96.667,116.055 96.544,115.926 96.389 C 115.799 96.236,115.612 96.111,115.510 96.111 C 115.407 96.111,115.427 96.234,115.556 96.389 M77.824 120.505 C 78.206 120.545,78.831 120.545,79.213 120.505 C 79.595 120.465,79.282 120.433,78.519 120.433 C 77.755 120.433,77.442 120.465,77.824 120.505 M88.671 120.509 C 92.676 120.537,99.176 120.537,103.116 120.509 C 107.055 120.481,103.778 120.458,95.833 120.459 C 87.889 120.459,84.666 120.481,88.671 120.509 M70.775 151.493 C 70.820 151.627,70.966 151.773,71.100 151.817 C 71.238 151.863,71.308 151.794,71.262 151.655 C 71.217 151.521,71.071 151.376,70.938 151.331 C 70.799 151.285,70.729 151.354,70.775 151.493 M115.556 151.574 C 115.556 151.727,115.630 151.852,115.721 151.852 C 115.812 151.852,115.934 151.727,115.993 151.574 C 116.058 151.405,115.993 151.296,115.828 151.296 C 115.678 151.296,115.556 151.421,115.556 151.574 " stroke="none" fill="#3c3c3c" fill-rule="evenodd"></path><path id="path3" d="M180.926 16.894 C 181.137 17.122,181.358 17.497,181.416 17.728 C 181.524 18.157,181.752 18.274,181.928 17.990 C 182.031 17.823,180.924 16.481,180.683 16.481 C 180.605 16.481,180.714 16.667,180.926 16.894 M180.905 18.472 C 180.894 18.549,180.867 19.903,180.846 21.481 C 180.777 26.657,178.644 30.982,174.387 34.577 L 173.681 35.173 173.750 55.411 C 173.822 76.500,173.855 77.420,174.637 79.921 C 174.735 80.233,174.815 80.744,174.815 81.055 C 174.815 81.367,174.940 81.725,175.093 81.852 C 175.245 81.979,175.370 82.312,175.370 82.593 C 175.370 82.873,175.495 83.207,175.648 83.333 C 175.801 83.460,175.926 83.753,175.926 83.984 C 175.926 84.216,176.051 84.453,176.204 84.511 C 176.356 84.570,176.481 84.787,176.481 84.994 C 176.481 85.201,176.565 85.370,176.667 85.370 C 176.769 85.370,176.852 85.477,176.852 85.607 C 176.852 85.737,176.998 85.981,177.176 86.150 C 177.831 86.768,178.576 88.090,178.416 88.350 C 178.358 88.443,178.490 88.519,178.707 88.519 C 179.051 88.519,179.087 88.592,178.981 89.074 C 178.886 89.508,178.923 89.630,179.152 89.630 C 179.313 89.630,179.444 89.755,179.444 89.907 C 179.444 90.060,179.569 90.185,179.722 90.185 C 179.875 90.185,180.000 90.292,180.000 90.421 C 180.000 90.551,180.374 90.822,180.832 91.023 C 181.289 91.224,181.664 91.493,181.665 91.620 C 181.666 91.748,181.792 91.852,181.944 91.852 C 182.097 91.852,182.222 91.934,182.222 92.034 C 182.222 92.133,182.436 92.269,182.696 92.334 C 182.978 92.405,183.133 92.550,183.079 92.691 C 183.009 92.874,183.100 92.869,183.485 92.669 C 184.142 92.326,184.984 92.336,185.119 92.688 C 185.258 93.048,184.901 93.472,184.181 93.801 C 180.097 95.670,176.300 99.729,175.178 103.426 C 175.054 103.833,174.847 104.500,174.716 104.907 C 174.586 105.315,174.427 106.065,174.363 106.574 C 174.299 107.083,174.156 107.958,174.046 108.519 C 173.645 110.558,173.618 150.849,174.017 151.192 C 174.201 151.351,174.977 152.007,175.741 152.651 C 180.337 156.524,183.109 165.556,180.615 168.533 C 180.481 168.694,180.370 168.923,180.370 169.042 C 180.370 169.162,180.296 169.259,180.205 169.259 C 180.114 169.259,179.997 169.371,179.944 169.508 C 179.789 169.911,180.709 169.645,181.024 169.195 C 181.174 168.982,181.296 168.867,181.296 168.940 C 181.296 169.188,181.999 168.374,182.124 167.981 C 182.192 167.767,182.325 167.593,182.420 167.593 C 182.515 167.593,182.593 167.435,182.593 167.242 C 182.593 167.049,182.718 166.844,182.870 166.785 C 183.023 166.726,183.148 166.518,183.148 166.322 C 183.148 166.126,183.273 165.918,183.426 165.859 C 183.588 165.797,183.704 165.519,183.704 165.191 C 183.704 164.841,183.791 164.647,183.935 164.676 C 184.077 164.704,184.190 164.470,184.228 164.074 C 184.261 163.718,184.407 163.359,184.552 163.278 C 184.696 163.196,184.815 162.923,184.815 162.670 C 184.815 162.417,184.940 162.163,185.093 162.104 C 185.280 162.032,185.370 161.739,185.370 161.207 C 185.370 160.730,185.481 160.324,185.648 160.185 C 185.832 160.032,185.926 159.617,185.926 158.953 C 185.926 158.233,186.004 157.921,186.204 157.845 C 186.424 157.760,186.481 157.366,186.481 155.929 C 186.481 154.546,186.547 154.065,186.759 153.889 C 187.003 153.686,187.037 151.082,187.037 132.500 C 187.037 113.918,187.071 111.314,187.315 111.111 C 187.504 110.954,187.593 110.533,187.593 109.786 C 187.593 108.984,187.667 108.664,187.870 108.585 C 188.023 108.527,188.151 108.259,188.154 107.989 C 188.157 107.720,188.282 107.338,188.432 107.141 C 188.581 106.943,188.704 106.589,188.704 106.353 C 188.704 106.118,188.780 105.926,188.874 105.926 C 188.968 105.926,189.100 105.676,189.167 105.370 C 189.234 105.065,189.365 104.815,189.459 104.815 C 189.553 104.815,189.630 104.565,189.630 104.259 C 189.630 103.889,189.722 103.704,189.907 103.704 C 190.060 103.704,190.185 103.579,190.185 103.426 C 190.185 103.273,190.310 103.148,190.463 103.148 C 190.616 103.148,190.741 103.023,190.741 102.870 C 190.741 102.718,190.866 102.593,191.019 102.593 C 191.171 102.593,191.296 102.468,191.296 102.315 C 191.296 102.162,191.412 102.037,191.554 102.037 C 191.696 102.037,191.860 101.912,191.919 101.759 C 191.977 101.606,192.186 101.481,192.382 101.481 C 192.578 101.481,192.786 101.356,192.845 101.204 C 192.903 101.051,193.079 100.926,193.235 100.926 C 193.391 100.926,193.519 100.801,193.519 100.648 C 193.519 100.474,193.694 100.370,193.987 100.370 C 194.245 100.370,194.504 100.245,194.563 100.093 C 194.621 99.940,194.869 99.815,195.112 99.815 C 195.356 99.815,195.556 99.731,195.556 99.630 C 195.556 99.528,195.760 99.444,196.009 99.444 C 196.259 99.444,196.530 99.327,196.611 99.184 C 196.693 99.042,196.968 98.896,197.222 98.860 L 197.685 98.796 197.734 93.102 C 197.777 88.118,197.748 87.407,197.503 87.407 C 197.344 87.407,197.222 87.571,197.222 87.784 C 197.222 88.300,196.756 88.434,196.209 88.076 C 195.959 87.912,195.610 87.778,195.434 87.778 C 195.145 87.778,193.058 86.809,192.130 86.244 C 191.168 85.657,190.264 84.853,189.607 83.995 C 189.210 83.478,188.803 82.955,188.702 82.832 C 188.601 82.709,188.519 82.447,188.519 82.250 C 188.519 82.053,188.394 81.844,188.241 81.785 C 188.078 81.723,187.963 81.445,187.963 81.117 C 187.963 80.741,188.055 80.556,188.241 80.556 C 188.406 80.556,188.519 80.726,188.519 80.974 C 188.519 81.204,188.676 81.491,188.869 81.611 C 189.173 81.801,189.206 81.782,189.125 81.470 C 189.073 81.273,188.957 81.111,188.867 81.111 C 188.777 81.111,188.704 80.960,188.704 80.776 C 188.704 80.144,188.219 79.669,188.067 80.151 C 187.874 80.759,187.369 80.675,187.441 80.046 C 187.482 79.694,187.600 79.545,187.824 79.563 C 188.062 79.582,188.148 79.450,188.148 79.064 C 188.148 78.366,187.799 78.184,187.421 78.685 C 187.083 79.134,186.850 79.033,186.855 78.441 C 186.859 77.817,187.178 77.432,187.405 77.778 C 187.535 77.976,187.588 77.735,187.590 76.934 C 187.594 75.337,187.168 74.770,186.838 75.931 C 186.605 76.750,186.601 76.753,186.493 76.204 C 186.279 75.116,186.658 73.808,186.909 74.769 C 186.956 74.947,187.004 65.829,187.016 54.506 C 187.027 43.183,186.986 33.787,186.925 33.626 C 186.736 33.134,186.297 33.285,186.293 33.843 C 186.292 34.123,186.210 34.477,186.111 34.630 C 185.986 34.823,185.931 34.502,185.929 33.571 C 185.926 32.458,185.972 32.252,186.204 32.340 C 186.438 32.430,186.481 32.186,186.481 30.782 C 186.481 29.273,186.447 29.108,186.111 29.020 C 185.839 28.949,185.741 29.015,185.741 29.266 C 185.741 29.454,185.657 29.659,185.556 29.722 C 185.444 29.791,185.370 29.539,185.370 29.085 C 185.370 28.540,185.447 28.333,185.648 28.333 C 185.854 28.333,185.926 28.117,185.926 27.500 C 185.926 27.037,185.839 26.667,185.730 26.667 C 185.622 26.667,185.585 26.583,185.648 26.481 C 185.883 26.101,185.404 26.313,185.125 26.713 C 184.835 27.129,184.834 27.129,184.825 26.528 C 184.818 26.112,184.901 25.926,185.093 25.926 C 185.288 25.926,185.370 25.728,185.370 25.257 C 185.370 24.619,185.345 24.591,184.815 24.669 C 184.333 24.740,184.259 24.693,184.259 24.320 C 184.259 23.860,184.532 23.736,184.700 24.120 C 184.756 24.248,184.784 24.060,184.762 23.704 C 184.726 23.115,184.676 23.060,184.213 23.109 C 183.772 23.155,183.704 23.096,183.704 22.672 C 183.704 22.313,183.778 22.211,183.981 22.289 C 184.169 22.361,184.259 22.280,184.259 22.042 C 184.259 21.633,183.853 21.310,183.745 21.634 C 183.607 22.049,183.148 21.861,183.148 21.389 C 183.148 21.101,183.253 20.926,183.426 20.926 C 183.753 20.926,183.794 20.633,183.494 20.448 C 183.379 20.377,183.208 20.455,183.115 20.622 C 182.866 21.066,182.593 20.993,182.593 20.483 C 182.593 20.239,182.468 19.992,182.315 19.933 C 182.162 19.874,182.037 19.703,182.037 19.552 C 182.037 19.087,180.966 18.065,180.905 18.472 M28.131 18.852 C 27.983 19.025,27.681 19.515,27.460 19.940 C 27.238 20.366,26.973 20.866,26.871 21.051 C 26.768 21.237,26.567 21.681,26.424 22.037 C 26.280 22.394,26.059 22.935,25.933 23.241 C 25.449 24.406,24.767 27.400,24.412 29.907 C 24.308 30.649,24.169 40.391,24.088 52.685 C 23.981 68.889,23.890 74.349,23.717 74.907 C 23.591 75.315,23.426 76.046,23.351 76.532 C 23.275 77.018,23.115 77.514,22.996 77.634 C 22.876 77.754,22.778 78.028,22.778 78.242 C 22.778 78.457,22.655 78.795,22.506 78.992 C 22.356 79.190,22.231 79.500,22.228 79.682 C 22.225 79.863,22.097 80.060,21.944 80.118 C 21.792 80.177,21.667 80.350,21.667 80.502 C 21.667 80.655,21.417 81.096,21.111 81.481 C 20.806 81.867,20.556 82.259,20.556 82.352 C 20.556 82.545,18.077 85.000,17.882 85.000 C 17.811 85.000,17.488 85.197,17.164 85.437 C 16.839 85.677,16.157 86.063,15.648 86.293 C 15.139 86.524,14.501 86.827,14.231 86.967 C 13.960 87.108,13.606 87.222,13.444 87.222 C 13.181 87.222,13.148 87.758,13.148 92.107 C 13.148 97.458,13.107 97.268,14.306 97.484 C 14.687 97.553,15.000 97.689,15.000 97.786 C 15.000 97.883,15.198 97.963,15.440 97.963 C 15.682 97.963,15.984 98.088,16.111 98.241 C 16.238 98.394,16.488 98.519,16.667 98.519 C 16.845 98.519,17.095 98.644,17.222 98.796 C 17.349 98.949,17.535 99.074,17.635 99.074 C 18.058 99.074,21.111 101.857,21.111 102.243 C 21.111 102.319,21.218 102.491,21.349 102.626 C 21.727 103.015,22.778 105.247,22.778 105.660 C 22.778 105.868,22.875 106.134,22.993 106.252 C 23.111 106.371,23.277 106.908,23.360 107.447 C 23.444 107.985,23.606 108.801,23.721 109.259 C 23.866 109.834,23.979 116.609,24.086 131.111 C 24.172 142.671,24.291 152.546,24.352 153.056 C 24.791 156.757,25.649 160.659,26.388 162.315 C 26.943 163.560,27.877 165.469,27.973 165.556 C 28.029 165.606,28.268 165.965,28.503 166.352 C 29.110 167.350,29.163 167.163,29.170 164.014 C 29.176 160.829,29.576 159.278,31.152 156.331 C 33.110 152.670,37.037 149.021,37.037 150.864 C 37.037 151.152,37.124 151.298,37.269 151.250 C 37.650 151.123,37.696 110.338,37.316 109.576 C 37.162 109.268,37.037 108.914,37.037 108.788 C 37.037 108.661,36.912 108.510,36.759 108.452 C 36.544 108.369,36.481 108.009,36.481 106.858 C 36.481 105.659,36.428 105.370,36.204 105.370 C 35.991 105.370,35.926 105.136,35.926 104.372 C 35.926 103.655,35.848 103.343,35.648 103.266 C 35.495 103.208,35.370 102.972,35.370 102.743 C 35.370 102.328,34.835 100.731,34.636 100.556 C 34.579 100.505,34.366 100.110,34.164 99.678 C 33.962 99.246,33.701 98.892,33.585 98.891 C 33.469 98.890,33.320 98.675,33.254 98.415 C 33.115 97.858,30.052 94.730,29.464 94.543 C 29.243 94.473,28.842 94.212,28.573 93.963 C 28.304 93.713,27.890 93.461,27.653 93.401 C 27.416 93.342,27.222 93.219,27.222 93.128 C 27.222 93.037,27.103 92.963,26.958 92.963 C 26.812 92.963,26.557 92.827,26.391 92.661 C 26.151 92.421,25.998 92.400,25.651 92.558 C 25.314 92.711,25.164 92.698,24.998 92.497 C 24.824 92.288,24.876 92.214,25.261 92.117 C 25.525 92.051,25.741 91.923,25.741 91.832 C 25.741 91.741,25.910 91.667,26.117 91.667 C 26.324 91.667,26.541 91.542,26.600 91.389 C 26.658 91.236,26.897 91.111,27.130 91.111 C 27.362 91.111,27.601 90.986,27.660 90.833 C 27.718 90.681,27.894 90.556,28.050 90.556 C 28.206 90.556,28.333 90.474,28.333 90.374 C 28.333 90.274,28.536 90.141,28.783 90.079 C 29.030 90.017,29.278 89.849,29.333 89.706 C 29.388 89.562,29.553 89.444,29.701 89.444 C 29.848 89.444,30.006 89.340,30.052 89.213 C 30.097 89.086,30.202 89.044,30.284 89.121 C 30.366 89.198,30.232 89.482,29.985 89.753 C 29.735 90.027,29.660 90.197,29.815 90.137 C 30.626 89.821,31.108 89.512,31.110 89.306 C 31.110 89.178,31.236 89.074,31.389 89.074 C 31.542 89.074,31.667 88.949,31.667 88.796 C 31.667 88.644,31.792 88.519,31.944 88.519 C 32.097 88.519,32.222 88.394,32.222 88.241 C 32.222 88.088,32.347 87.963,32.500 87.963 C 32.653 87.963,32.778 87.883,32.778 87.784 C 32.778 87.686,33.028 87.350,33.333 87.037 C 33.639 86.724,33.889 86.314,33.889 86.125 C 33.889 85.935,34.014 85.732,34.167 85.674 C 34.319 85.615,34.444 85.407,34.444 85.211 C 34.444 85.015,34.569 84.806,34.722 84.748 C 34.875 84.689,35.000 84.430,35.000 84.172 C 35.000 83.915,35.083 83.704,35.185 83.704 C 35.287 83.704,35.370 83.329,35.370 82.870 C 35.370 82.253,35.442 82.037,35.648 82.037 C 35.854 82.037,35.926 81.821,35.926 81.204 C 35.926 80.586,35.998 80.370,36.204 80.370 C 36.426 80.370,36.481 80.095,36.481 79.004 C 36.481 78.016,36.558 77.574,36.759 77.407 C 36.912 77.281,37.037 77.059,37.037 76.915 C 37.037 76.771,37.162 76.462,37.316 76.228 C 37.696 75.647,37.650 33.507,37.269 33.380 C 37.128 33.333,37.036 33.472,37.034 33.735 C 37.031 34.289,36.715 34.788,36.528 34.535 C 36.451 34.432,36.014 34.105,35.556 33.808 C 31.457 31.148,28.755 25.973,28.657 20.598 C 28.620 18.558,28.558 18.352,28.131 18.852 M182.593 19.522 C 182.593 19.683,182.725 19.815,182.886 19.815 C 183.047 19.815,183.146 19.716,183.106 19.595 C 182.991 19.252,182.593 19.195,182.593 19.522 M172.451 57.310 C 172.489 71.888,172.550 75.957,172.731 76.139 C 172.917 76.324,172.963 72.626,172.963 57.649 C 172.963 41.102,172.930 38.916,172.683 38.821 C 172.433 38.725,172.408 40.765,172.451 57.310 M175.408 84.992 C 175.664 85.401,175.844 85.350,175.677 84.915 C 175.617 84.758,175.481 84.630,175.375 84.630 C 175.253 84.630,175.265 84.762,175.408 84.992 M176.296 86.574 C 176.296 86.727,176.380 86.852,176.481 86.852 C 176.583 86.852,176.667 86.977,176.667 87.130 C 176.667 87.282,176.792 87.407,176.944 87.407 C 177.097 87.407,177.222 87.532,177.222 87.685 C 177.222 87.838,177.302 87.963,177.400 87.963 C 177.665 87.963,176.798 86.316,176.528 86.305 C 176.400 86.300,176.296 86.421,176.296 86.574 M28.333 90.818 C 28.333 90.962,28.229 91.122,28.102 91.174 C 27.975 91.225,28.100 91.274,28.380 91.282 C 28.770 91.293,28.889 91.210,28.889 90.926 C 28.889 90.720,28.765 90.556,28.611 90.556 C 28.458 90.556,28.333 90.674,28.333 90.818 M27.269 91.615 C 26.822 91.671,26.667 91.783,26.667 92.049 C 26.667 92.514,26.823 92.493,27.500 91.939 C 27.806 91.688,28.014 91.496,27.963 91.512 C 27.912 91.528,27.600 91.574,27.269 91.615 M12.489 98.061 C 12.991 98.441,13.463 98.436,13.082 98.056 C 12.929 97.903,12.652 97.780,12.467 97.784 C 12.150 97.789,12.152 97.806,12.489 98.061 M172.639 109.318 C 172.459 109.723,172.407 113.960,172.407 128.438 C 172.407 145.934,172.458 147.907,172.878 146.806 C 173.106 146.206,172.868 108.802,172.639 109.318 " stroke="none" fill="#fc0d04" fill-rule="evenodd"></path><path id="path4" d="M180.336 16.811 C 180.318 16.986,180.293 18.755,180.280 20.741 C 180.257 24.515,180.247 24.579,179.218 27.222 C 178.334 29.493,176.379 32.260,174.708 33.605 C 174.207 34.009,173.755 34.390,173.704 34.452 C 173.653 34.513,173.465 34.618,173.287 34.684 C 173.109 34.749,172.963 34.940,172.963 35.107 C 172.963 35.300,172.862 35.371,172.685 35.303 C 172.496 35.231,172.407 35.313,172.407 35.561 C 172.407 35.762,172.496 35.926,172.604 35.926 C 172.711 35.926,172.740 35.830,172.668 35.712 C 172.586 35.580,172.617 35.549,172.749 35.630 C 173.090 35.841,173.029 37.287,172.685 37.155 C 172.464 37.070,172.407 37.217,172.407 37.882 C 172.407 38.452,172.495 38.749,172.685 38.822 C 172.930 38.916,172.963 41.164,172.963 57.514 C 172.963 73.958,172.995 76.087,173.241 75.993 C 173.476 75.903,173.519 76.159,173.519 77.660 C 173.519 79.160,173.561 79.416,173.796 79.326 C 174.025 79.239,174.074 79.421,174.074 80.351 C 174.074 81.232,174.135 81.481,174.352 81.481 C 174.565 81.481,174.630 81.718,174.630 82.500 C 174.630 83.093,174.711 83.519,174.826 83.519 C 174.934 83.519,174.962 83.422,174.890 83.305 C 174.817 83.187,174.836 83.139,174.931 83.198 C 175.026 83.257,175.125 83.581,175.151 83.917 C 175.177 84.254,175.320 84.598,175.469 84.681 C 175.619 84.765,175.741 84.995,175.741 85.192 C 175.741 85.605,176.275 86.296,176.595 86.296 C 176.714 86.296,176.860 86.488,176.918 86.721 C 177.139 87.602,179.074 89.464,179.074 88.796 C 179.074 88.639,178.908 88.519,178.693 88.519 C 178.483 88.519,178.358 88.443,178.416 88.350 C 178.576 88.090,177.831 86.768,177.176 86.150 C 176.998 85.981,176.852 85.737,176.852 85.607 C 176.852 85.477,176.769 85.370,176.667 85.370 C 176.565 85.370,176.481 85.201,176.481 84.994 C 176.481 84.787,176.356 84.570,176.204 84.511 C 176.051 84.453,175.926 84.216,175.926 83.984 C 175.926 83.753,175.801 83.460,175.648 83.333 C 175.495 83.207,175.370 82.873,175.370 82.593 C 175.370 82.312,175.245 81.979,175.093 81.852 C 174.940 81.725,174.815 81.367,174.815 81.055 C 174.815 80.744,174.735 80.233,174.637 79.921 C 173.855 77.420,173.822 76.500,173.750 55.411 L 173.681 35.173 174.387 34.577 C 178.674 30.957,180.794 26.632,180.825 21.446 C 180.835 19.848,180.902 18.481,180.975 18.408 C 181.147 18.236,182.037 19.195,182.037 19.552 C 182.037 19.703,182.162 19.874,182.315 19.933 C 182.468 19.992,182.593 20.246,182.593 20.498 C 182.593 21.116,183.038 20.955,183.114 20.310 C 183.156 19.959,183.088 19.815,182.883 19.815 C 182.697 19.815,182.593 19.649,182.593 19.352 C 182.593 19.097,182.515 18.889,182.420 18.889 C 182.325 18.889,182.194 18.722,182.130 18.519 C 182.065 18.315,181.914 18.146,181.793 18.143 C 181.673 18.141,181.425 17.815,181.243 17.420 C 180.877 16.626,180.391 16.300,180.336 16.811 M28.519 17.394 C 28.519 17.503,28.394 17.593,28.241 17.593 C 28.086 17.593,27.963 17.757,27.963 17.963 C 27.963 18.204,27.840 18.333,27.610 18.333 C 27.341 18.333,27.281 18.427,27.360 18.727 C 27.426 18.982,27.355 19.181,27.157 19.292 C 26.989 19.386,26.852 19.667,26.852 19.917 C 26.852 20.196,26.745 20.370,26.574 20.370 C 26.389 20.370,26.296 20.556,26.296 20.926 C 26.296 21.296,26.204 21.481,26.019 21.481 C 25.833 21.481,25.741 21.667,25.741 22.037 C 25.741 22.407,25.648 22.593,25.463 22.593 C 25.257 22.593,25.185 22.808,25.185 23.420 C 25.185 24.080,25.129 24.226,24.907 24.141 C 24.680 24.054,24.630 24.228,24.630 25.093 C 24.630 25.980,24.582 26.133,24.338 26.039 C 24.092 25.945,24.052 26.081,24.083 26.899 C 24.140 28.399,24.095 28.704,23.815 28.704 C 23.604 28.704,23.560 29.150,23.583 31.065 C 23.611 33.416,23.384 34.588,23.125 33.426 C 23.057 33.120,22.995 42.329,22.988 53.889 C 22.980 65.449,22.969 75.074,22.962 75.278 L 22.951 75.648 22.664 75.278 C 22.398 74.934,22.382 74.990,22.439 76.071 C 22.485 76.946,22.432 77.277,22.228 77.404 C 22.078 77.496,21.947 77.848,21.936 78.184 C 21.925 78.527,21.825 78.778,21.710 78.754 C 21.597 78.730,21.452 78.876,21.388 79.078 C 21.324 79.279,21.194 79.444,21.099 79.444 C 21.004 79.444,20.926 79.644,20.926 79.888 C 20.926 80.131,20.801 80.379,20.648 80.437 C 20.495 80.496,20.370 80.755,20.370 81.013 C 20.370 81.306,20.266 81.481,20.093 81.481 C 19.940 81.481,19.815 81.606,19.815 81.759 C 19.815 81.912,19.690 82.037,19.537 82.037 C 19.384 82.037,19.259 82.116,19.259 82.213 C 19.259 82.443,17.443 84.259,17.213 84.259 C 17.116 84.259,17.037 84.384,17.037 84.537 C 17.037 84.710,16.862 84.815,16.574 84.815 C 16.286 84.815,16.111 84.920,16.111 85.093 C 16.111 85.245,15.947 85.370,15.747 85.370 C 15.483 85.370,15.415 85.455,15.500 85.678 C 15.594 85.922,15.535 85.964,15.213 85.880 C 14.970 85.816,14.692 85.890,14.517 86.065 C 14.288 86.294,14.195 86.306,14.080 86.120 C 13.969 85.941,13.916 85.938,13.859 86.107 C 13.818 86.230,13.571 86.344,13.310 86.360 C 13.048 86.376,12.835 86.472,12.835 86.574 C 12.840 87.678,12.769 87.874,12.494 87.511 C 12.253 87.192,12.222 87.708,12.222 92.094 C 12.222 95.819,12.277 97.026,12.443 96.991 C 12.564 96.965,12.697 97.102,12.739 97.296 C 12.796 97.556,12.739 97.617,12.519 97.533 C 12.356 97.470,12.222 97.500,12.222 97.598 C 12.222 97.697,12.353 97.778,12.513 97.778 C 12.673 97.778,12.929 97.903,13.082 98.056 C 13.235 98.208,13.568 98.333,13.823 98.333 C 14.077 98.333,14.411 98.458,14.563 98.611 C 14.716 98.764,15.002 98.889,15.198 98.889 C 15.395 98.889,15.556 98.972,15.556 99.074 C 15.556 99.176,15.712 99.259,15.903 99.259 C 16.094 99.259,16.355 99.384,16.481 99.537 C 16.614 99.697,17.018 99.815,17.430 99.815 C 17.945 99.815,18.148 99.893,18.148 100.093 C 18.148 100.245,18.273 100.370,18.426 100.370 C 18.579 100.370,18.704 100.495,18.704 100.648 C 18.704 100.801,18.829 100.926,18.981 100.926 C 19.134 100.926,19.259 101.051,19.259 101.204 C 19.259 101.356,19.384 101.481,19.537 101.481 C 19.690 101.481,19.815 101.606,19.815 101.759 C 19.815 101.912,19.940 102.037,20.093 102.037 C 20.245 102.037,20.370 102.162,20.370 102.315 C 20.370 102.468,20.504 102.593,20.668 102.593 C 20.893 102.593,20.938 102.705,20.850 103.056 C 20.753 103.442,20.800 103.519,21.131 103.519 C 21.473 103.519,21.512 103.595,21.417 104.074 C 21.322 104.547,21.362 104.630,21.685 104.630 C 22.005 104.630,22.057 104.730,22.011 105.265 C 21.976 105.672,22.072 106.028,22.279 106.257 C 22.544 106.550,22.579 106.806,22.476 107.690 C 22.366 108.619,22.388 108.751,22.638 108.655 C 23.105 108.476,23.413 110.740,22.960 111.020 C 22.856 111.084,22.814 111.205,22.866 111.289 C 22.918 111.373,22.973 120.221,22.988 130.952 C 23.004 141.683,23.053 150.255,23.098 150.000 C 23.415 148.196,23.779 150.439,23.629 153.279 C 23.548 154.818,23.576 155.152,23.779 155.074 C 24.138 154.936,24.303 155.787,24.152 156.997 C 24.060 157.733,24.083 157.979,24.234 157.886 C 24.608 157.655,24.901 158.625,24.677 159.354 C 24.499 159.935,24.514 160.000,24.832 160.000 C 25.037 160.000,25.194 160.136,25.207 160.324 C 25.247 160.938,25.146 161.389,24.935 161.545 C 24.801 161.644,24.840 161.664,25.041 161.599 C 25.471 161.462,25.967 161.985,25.827 162.428 C 25.755 162.654,25.819 162.820,26.006 162.891 C 26.178 162.957,26.296 163.223,26.296 163.544 C 26.296 163.855,26.415 164.131,26.574 164.192 C 26.727 164.251,26.852 164.459,26.852 164.655 C 26.852 164.851,26.977 165.060,27.130 165.118 C 27.282 165.177,27.407 165.385,27.407 165.581 C 27.407 165.777,27.532 165.986,27.685 166.044 C 27.838 166.103,27.963 166.300,27.963 166.481 C 27.963 166.663,28.088 166.860,28.241 166.919 C 28.394 166.977,28.519 167.143,28.519 167.288 C 28.519 167.595,29.420 168.235,29.599 168.055 C 29.667 167.987,29.725 166.376,29.729 164.475 C 29.735 161.221,29.764 160.943,30.215 159.722 C 31.487 156.289,32.605 154.471,34.686 152.454 C 35.995 151.186,36.246 151.025,36.806 151.097 C 36.933 151.114,37.037 150.964,37.037 150.764 C 37.037 149.016,33.043 152.794,31.152 156.331 C 29.576 159.278,29.176 160.829,29.170 164.014 C 29.163 167.163,29.110 167.350,28.503 166.352 C 28.268 165.965,28.029 165.606,27.973 165.556 C 27.877 165.469,26.943 163.560,26.388 162.315 C 25.649 160.659,24.791 156.757,24.352 153.056 C 24.291 152.546,24.172 142.671,24.086 131.111 C 23.979 116.609,23.866 109.834,23.721 109.259 C 23.606 108.801,23.444 107.985,23.360 107.447 C 23.277 106.908,23.111 106.371,22.993 106.252 C 22.875 106.134,22.778 105.868,22.778 105.660 C 22.778 105.247,21.727 103.015,21.349 102.626 C 21.218 102.491,21.111 102.319,21.111 102.243 C 21.111 101.857,18.058 99.074,17.635 99.074 C 17.535 99.074,17.349 98.949,17.222 98.796 C 17.095 98.644,16.845 98.519,16.667 98.519 C 16.488 98.519,16.238 98.394,16.111 98.241 C 15.984 98.088,15.682 97.963,15.440 97.963 C 15.198 97.963,15.000 97.883,15.000 97.786 C 15.000 97.689,14.688 97.553,14.306 97.484 C 13.107 97.268,13.148 97.458,13.148 92.107 C 13.148 87.758,13.181 87.222,13.444 87.222 C 13.606 87.222,13.960 87.108,14.231 86.967 C 14.501 86.827,15.139 86.524,15.648 86.293 C 16.157 86.063,16.839 85.677,17.164 85.437 C 17.488 85.197,17.811 85.000,17.882 85.000 C 18.077 85.000,20.556 82.545,20.556 82.352 C 20.556 82.259,20.806 81.867,21.111 81.481 C 21.417 81.096,21.667 80.655,21.667 80.502 C 21.667 80.350,21.792 80.177,21.944 80.118 C 22.097 80.060,22.225 79.863,22.228 79.682 C 22.231 79.500,22.356 79.190,22.506 78.992 C 22.655 78.795,22.778 78.457,22.778 78.242 C 22.778 78.028,22.876 77.754,22.996 77.634 C 23.115 77.514,23.275 77.018,23.351 76.532 C 23.426 76.046,23.591 75.315,23.717 74.907 C 23.890 74.349,23.981 68.889,24.088 52.685 C 24.169 40.391,24.308 30.649,24.412 29.907 C 24.767 27.400,25.449 24.406,25.933 23.241 C 26.059 22.935,26.280 22.394,26.424 22.037 C 26.567 21.681,26.768 21.237,26.871 21.051 C 26.973 20.866,27.237 20.366,27.457 19.940 C 27.836 19.208,28.493 18.354,28.541 18.530 C 28.553 18.575,28.593 19.486,28.630 20.556 C 28.820 26.101,31.459 31.149,35.556 33.808 C 36.014 34.105,36.451 34.432,36.528 34.535 C 36.616 34.654,36.734 34.620,36.849 34.444 C 37.161 33.969,37.058 33.754,36.463 33.635 C 35.947 33.532,35.177 33.020,33.920 31.944 C 31.181 29.599,29.469 25.328,29.282 20.372 C 29.180 17.665,29.130 17.312,28.843 17.257 C 28.664 17.223,28.519 17.285,28.519 17.394 M183.148 21.389 C 183.148 21.677,183.253 21.852,183.426 21.852 C 183.599 21.852,183.704 21.677,183.704 21.389 C 183.704 21.101,183.599 20.926,183.426 20.926 C 183.253 20.926,183.148 21.101,183.148 21.389 M183.704 22.670 C 183.704 22.981,183.805 23.148,183.994 23.148 C 184.187 23.148,184.265 23.013,184.226 22.746 C 184.139 22.153,183.704 22.090,183.704 22.670 M184.259 24.346 C 184.259 24.676,184.336 24.774,184.537 24.697 C 184.854 24.575,184.854 24.576,184.702 24.182 C 184.530 23.733,184.259 23.834,184.259 24.346 M184.821 26.528 C 184.826 27.097,184.841 27.110,185.098 26.770 C 185.449 26.307,185.446 25.926,185.093 25.926 C 184.901 25.926,184.817 26.114,184.821 26.528 M185.370 29.111 C 185.370 29.998,185.658 29.881,185.802 28.935 C 185.869 28.497,185.823 28.333,185.632 28.333 C 185.448 28.333,185.370 28.565,185.370 29.111 M185.932 33.571 C 185.938 35.080,186.216 34.959,186.362 33.383 C 186.428 32.675,186.384 32.410,186.188 32.334 C 185.977 32.253,185.927 32.492,185.932 33.571 M186.453 75.046 C 186.415 75.377,186.432 75.898,186.492 76.204 L 186.600 76.759 186.813 76.030 C 187.025 75.306,186.945 74.444,186.667 74.444 C 186.587 74.444,186.491 74.715,186.453 75.046 M186.964 77.886 C 186.797 78.321,186.828 78.852,187.028 78.976 C 187.285 79.135,187.632 78.380,187.498 77.956 C 187.359 77.517,187.118 77.486,186.964 77.886 M187.531 79.568 C 187.463 79.636,187.407 79.886,187.407 80.123 C 187.407 80.655,187.891 80.703,188.055 80.187 C 188.229 79.638,187.877 79.222,187.531 79.568 M187.963 81.117 C 187.963 81.445,188.078 81.723,188.241 81.785 C 188.394 81.844,188.519 82.053,188.519 82.250 C 188.519 82.447,188.601 82.709,188.702 82.832 C 188.803 82.955,189.210 83.478,189.607 83.995 C 190.264 84.853,191.168 85.657,192.130 86.244 C 193.058 86.809,195.145 87.778,195.434 87.778 C 195.610 87.778,195.959 87.912,196.209 88.076 C 196.827 88.481,197.222 88.290,197.222 87.585 C 197.222 87.063,197.196 87.037,196.931 87.302 C 196.511 87.721,195.485 87.696,195.597 87.269 C 195.668 86.999,195.555 86.944,194.925 86.944 C 194.354 86.944,194.172 86.873,194.186 86.656 C 194.201 86.442,194.071 86.388,193.677 86.446 C 193.248 86.509,193.148 86.455,193.148 86.158 C 193.148 85.868,193.053 85.810,192.685 85.881 C 192.346 85.945,192.222 85.889,192.222 85.670 C 192.222 85.505,192.139 85.370,192.037 85.370 C 191.935 85.370,191.852 85.245,191.852 85.093 C 191.852 84.940,191.727 84.815,191.574 84.815 C 191.421 84.815,191.296 84.690,191.296 84.537 C 191.296 84.384,191.171 84.259,191.019 84.259 C 190.866 84.259,190.741 84.134,190.741 83.981 C 190.741 83.829,190.616 83.704,190.463 83.704 C 190.310 83.704,190.185 83.579,190.185 83.426 C 190.185 83.273,190.060 83.148,189.907 83.148 C 189.755 83.148,189.630 83.023,189.630 82.870 C 189.630 82.718,189.541 82.593,189.434 82.593 C 189.326 82.593,189.288 82.510,189.351 82.409 C 189.413 82.308,189.252 82.013,188.991 81.752 C 188.731 81.492,188.519 81.117,188.519 80.918 C 188.519 80.718,188.394 80.556,188.241 80.556 C 188.055 80.556,187.963 80.741,187.963 81.117 M30.000 89.259 C 30.000 89.361,29.872 89.444,29.716 89.444 C 29.560 89.444,29.388 89.562,29.333 89.706 C 29.278 89.849,29.030 90.017,28.783 90.079 C 28.536 90.141,28.333 90.274,28.333 90.374 C 28.333 90.474,28.206 90.556,28.050 90.556 C 27.894 90.556,27.718 90.681,27.660 90.833 C 27.601 90.986,27.362 91.111,27.130 91.111 C 26.897 91.111,26.658 91.236,26.600 91.389 C 26.541 91.542,26.324 91.667,26.117 91.667 C 25.910 91.667,25.741 91.741,25.741 91.832 C 25.741 91.923,25.525 92.051,25.261 92.117 C 24.870 92.215,24.823 92.286,25.003 92.504 C 25.163 92.696,25.318 92.720,25.563 92.589 C 25.749 92.489,26.074 92.407,26.284 92.407 C 26.543 92.407,26.667 92.288,26.667 92.037 C 26.667 91.756,26.790 91.667,27.181 91.667 C 27.683 91.667,28.333 91.130,28.333 90.717 C 28.333 90.603,28.499 90.556,28.707 90.610 C 28.973 90.680,29.268 90.512,29.724 90.030 C 30.384 89.334,30.510 89.074,30.185 89.074 C 30.083 89.074,30.000 89.157,30.000 89.259 M183.611 92.593 C 183.318 92.718,183.393 92.754,183.970 92.765 L 184.699 92.778 184.302 93.148 C 184.083 93.352,183.786 93.519,183.642 93.519 C 183.497 93.519,183.275 93.644,183.148 93.796 C 183.021 93.949,182.807 94.074,182.672 94.074 C 182.536 94.074,182.359 94.178,182.278 94.306 C 182.104 94.576,181.526 94.965,181.065 95.120 C 180.887 95.179,180.741 95.295,180.741 95.377 C 180.741 95.459,180.470 95.694,180.139 95.899 C 179.808 96.105,179.079 96.745,178.519 97.322 C 177.008 98.878,176.852 99.058,176.852 99.239 C 176.852 99.330,176.727 99.453,176.574 99.511 C 176.421 99.570,176.296 99.735,176.296 99.879 C 176.296 100.022,176.171 100.244,176.019 100.370 C 175.866 100.497,175.741 100.722,175.741 100.869 C 175.741 101.017,175.616 101.263,175.463 101.415 C 175.310 101.568,175.185 101.860,175.185 102.063 C 175.185 102.267,175.060 102.559,174.907 102.712 C 174.755 102.864,174.630 103.233,174.630 103.532 C 174.630 103.890,174.536 104.074,174.352 104.074 C 174.139 104.074,174.074 104.311,174.074 105.093 C 174.074 105.874,174.010 106.111,173.796 106.111 C 173.569 106.111,173.519 106.432,173.519 107.890 C 173.519 109.395,173.476 109.653,173.241 109.563 C 172.995 109.468,172.963 111.610,172.963 128.160 C 172.963 143.445,172.918 146.881,172.719 146.957 C 172.577 147.012,172.458 147.404,172.432 147.901 C 172.396 148.603,172.438 148.732,172.675 148.640 C 172.918 148.547,172.963 148.729,172.963 149.813 C 172.963 150.614,173.050 151.169,173.194 151.289 C 173.322 151.394,174.028 151.937,174.764 152.494 C 178.732 155.499,180.741 159.769,180.741 165.199 C 180.741 167.485,180.670 167.852,179.988 169.118 C 179.734 169.589,179.776 169.695,180.093 169.378 C 180.245 169.226,180.370 169.039,180.370 168.963 C 180.370 168.887,180.481 168.694,180.615 168.533 C 183.109 165.556,180.337 156.524,175.741 152.651 C 174.977 152.007,174.201 151.351,174.017 151.192 C 173.618 150.849,173.645 110.558,174.046 108.519 C 174.156 107.958,174.299 107.083,174.363 106.574 C 174.427 106.065,174.586 105.315,174.716 104.907 C 174.847 104.500,175.054 103.833,175.178 103.426 C 176.300 99.729,180.097 95.670,184.181 93.801 C 185.748 93.084,185.195 91.912,183.611 92.593 " stroke="none" fill="#fc520c" fill-rule="evenodd"></path></g></svg>